<?xml version="1.0" encoding="UTF-8" standalone="no"?>
<!-- Created with Inkscape (http://www.inkscape.org/) -->

<svg
   xmlns:dc="http://purl.org/dc/elements/1.1/"
   xmlns:cc="http://creativecommons.org/ns#"
   xmlns:rdf="http://www.w3.org/1999/02/22-rdf-syntax-ns#"
   xmlns:svg="http://www.w3.org/2000/svg"
   xmlns="http://www.w3.org/2000/svg"
   xmlns:sodipodi="http://sodipodi.sourceforge.net/DTD/sodipodi-0.dtd"
   xmlns:inkscape="http://www.inkscape.org/namespaces/inkscape"
   version="1.1"
   id="svg2"
   xml:space="preserve"
   width="960"
   height="960"
   viewBox="0 0 960 960"
   sodipodi:docname="fries.svg"
   inkscape:version="0.92.2 (5c3e80d, 2017-08-06)"><metadata
     id="metadata8"><rdf:RDF><cc:Work
         rdf:about=""><dc:format>image/svg+xml</dc:format><dc:type
           rdf:resource="http://purl.org/dc/dcmitype/StillImage" /><dc:title></dc:title></cc:Work></rdf:RDF></metadata><defs
     id="defs6"><clipPath
       clipPathUnits="userSpaceOnUse"
       id="clipPath20"><path
         d="M 0,720 H 720 V 0 H 0 Z"
         id="path18"
         inkscape:connector-curvature="0" /></clipPath><clipPath
       clipPathUnits="userSpaceOnUse"
       id="clipPath28"><path
         d="M 107.602,612.398 H 612.398 V 107.602 H 107.602 Z"
         id="path26"
         inkscape:connector-curvature="0" /></clipPath><clipPath
       clipPathUnits="userSpaceOnUse"
       id="clipPath92"><path
         d="M 0,720 H 720 V 0 H 0 Z"
         id="path90"
         inkscape:connector-curvature="0" /></clipPath></defs><sodipodi:namedview
     pagecolor="#ffffff"
     bordercolor="#666666"
     borderopacity="1"
     objecttolerance="10"
     gridtolerance="10"
     guidetolerance="10"
     inkscape:pageopacity="0"
     inkscape:pageshadow="2"
     inkscape:window-width="3200"
     inkscape:window-height="1644"
     id="namedview4"
     showgrid="false"
     inkscape:zoom="0.24583333"
     inkscape:cx="-492.20339"
     inkscape:cy="480"
     inkscape:window-x="-16"
     inkscape:window-y="-16"
     inkscape:window-maximized="1"
     inkscape:current-layer="g10" /><g
     id="g10"
     inkscape:groupmode="layer"
     inkscape:label="Fries"
     transform="matrix(1.3333333,0,0,-1.3333333,0,960)"><g
       id="g14"><g
         id="g16"
         clip-path="url(#clipPath20)"><g
           id="g22"><g
             id="g24" /><g
             id="g36"><g
               clip-path="url(#clipPath28)"
               id="g34"
               style="opacity:0.5"><g
                 transform="translate(612.3985,360)"
                 id="g32"><path
                   d="m 0,0 c 0,-139.396 -113.003,-252.398 -252.398,-252.398 -139.396,0 -252.399,113.002 -252.399,252.398 0,139.396 113.003,252.398 252.399,252.398 C -113.003,252.398 0,139.396 0,0"
                   style="fill:#ffffff;fill-opacity:1;fill-rule:nonzero;stroke:none"
                   id="path30"
                   inkscape:connector-curvature="0" /></g></g></g></g></g></g><g
       id="g38"
       transform="translate(286.0258,330.0292)"><path
         d="M 0,0 H -31.29 V 187.456 L -6.139,192.548 0,187.456 Z"
         style="fill:#e3a625;fill-opacity:1;fill-rule:nonzero;stroke:none"
         id="path40"
         inkscape:connector-curvature="0" /></g><path
       d="m 279.887,335.122 h -31.29 v 187.456 h 31.29 z"
       style="fill:#f7c25b;fill-opacity:1;fill-rule:nonzero;stroke:none"
       id="path42"
       inkscape:connector-curvature="0" /><g
       id="g44"
       transform="translate(330.9534,333.7848)"><path
         d="M 0,0 H -33.604 V 212.346 L -6.593,218.115 0,212.346 Z"
         style="fill:#e3a625;fill-opacity:1;fill-rule:nonzero;stroke:none"
         id="path46"
         inkscape:connector-curvature="0" /></g><path
       d="M 324.361,339.554 H 290.757 V 551.9 h 33.604 z"
       style="fill:#fbd892;fill-opacity:1;fill-rule:nonzero;stroke:none"
       id="path48"
       inkscape:connector-curvature="0" /><g
       id="g50"
       transform="translate(293.0468,260.4149)"><path
         d="M 0,0 H -33.604 V 212.347 L -6.593,218.115 0,212.347 Z"
         style="fill:#e3a625;fill-opacity:1;fill-rule:nonzero;stroke:none"
         id="path52"
         inkscape:connector-curvature="0" /></g><path
       d="M 286.454,266.184 H 252.85 v 212.347 h 33.604 z"
       style="fill:#fbd892;fill-opacity:1;fill-rule:nonzero;stroke:none"
       id="path54"
       inkscape:connector-curvature="0" /><g
       id="g56"
       transform="translate(381.5927,300.7833)"><path
         d="M 0,0 H -33.604 V 215.928 L -6.593,221.794 0,215.928 Z"
         style="fill:#e3a625;fill-opacity:1;fill-rule:nonzero;stroke:none"
         id="path58"
         inkscape:connector-curvature="0" /></g><path
       d="M 375,306.649 H 341.396 V 522.577 H 375 Z"
       style="fill:#f7c25b;fill-opacity:1;fill-rule:nonzero;stroke:none"
       id="path60"
       inkscape:connector-curvature="0" /><g
       id="g62"
       transform="translate(368.0872,277.7812)"><path
         d="M 0,0 H -33.604 V 212.346 L -6.593,218.115 0,212.346 Z"
         style="fill:#e3a625;fill-opacity:1;fill-rule:nonzero;stroke:none"
         id="path64"
         inkscape:connector-curvature="0" /></g><path
       d="M 361.494,283.55 H 327.89 v 212.346 h 33.604 z"
       style="fill:#fbd892;fill-opacity:1;fill-rule:nonzero;stroke:none"
       id="path66"
       inkscape:connector-curvature="0" /><g
       id="g68"
       transform="translate(430.5597,326.0571)"><path
         d="M 0,0 H -33.604 V 212.346 L -6.593,218.115 0,212.346 Z"
         style="fill:#e3a625;fill-opacity:1;fill-rule:nonzero;stroke:none"
         id="path70"
         inkscape:connector-curvature="0" /></g><path
       d="m 423.967,331.826 h -33.604 v 212.346 h 33.604 z"
       style="fill:#f7c25b;fill-opacity:1;fill-rule:nonzero;stroke:none"
       id="path72"
       inkscape:connector-curvature="0" /><g
       id="g74"
       transform="translate(414.8791,266.7985)"><path
         d="M 0,0 H -33.604 V 212.346 L -6.593,218.115 0,212.346 Z"
         style="fill:#e3a625;fill-opacity:1;fill-rule:nonzero;stroke:none"
         id="path76"
         inkscape:connector-curvature="0" /></g><path
       d="m 408.286,272.567 h -33.604 v 212.346 h 33.604 z"
       style="fill:#fbd892;fill-opacity:1;fill-rule:nonzero;stroke:none"
       id="path78"
       inkscape:connector-curvature="0" /><g
       id="g80"
       transform="translate(470.7047,299.8)"><path
         d="M 0,0 H -33.604 V 212.346 L -6.593,218.115 0,212.346 Z"
         style="fill:#e3a625;fill-opacity:1;fill-rule:nonzero;stroke:none"
         id="path82"
         inkscape:connector-curvature="0" /></g><path
       d="m 464.112,305.569 h -33.604 v 212.346 h 33.604 z"
       style="fill:#fbd892;fill-opacity:1;fill-rule:nonzero;stroke:none"
       id="path84"
       inkscape:connector-curvature="0" /><g
       id="g86"><g
         id="g88"
         clip-path="url(#clipPath92)"><g
           id="g94"
           transform="translate(279.8476,402.1035)"><path
             d="m 0,0 -2.506,0.62 h -38.627 l 19.314,-234.623 105.614,0.554 -1.57,158.49 C 41.997,-74.15 8.523,-42.37 0,0"
             style="fill:#dd4231;fill-opacity:1;fill-rule:nonzero;stroke:none"
             id="path96"
             inkscape:connector-curvature="0" /></g><g
           id="g98"
           transform="translate(440.1525,402.1035)"><path
             d="m 0,0 2.506,0.62 h 38.627 l -19.314,-234.623 -105.614,0.554 1.57,158.49 C -41.997,-74.15 -8.523,-42.37 0,0"
             style="fill:#d52827;fill-opacity:1;fill-rule:nonzero;stroke:none"
             id="path100"
             inkscape:connector-curvature="0" /></g></g></g></g></svg>