<?xml version="1.0" encoding="UTF-8" standalone="no"?>
<!-- Created with Inkscape (http://www.inkscape.org/) -->

<svg
   xmlns:dc="http://purl.org/dc/elements/1.1/"
   xmlns:cc="http://creativecommons.org/ns#"
   xmlns:rdf="http://www.w3.org/1999/02/22-rdf-syntax-ns#"
   xmlns:svg="http://www.w3.org/2000/svg"
   xmlns="http://www.w3.org/2000/svg"
   xmlns:sodipodi="http://sodipodi.sourceforge.net/DTD/sodipodi-0.dtd"
   xmlns:inkscape="http://www.inkscape.org/namespaces/inkscape"
   version="1.1"
   id="svg2"
   xml:space="preserve"
   width="793.70667"
   height="224"
   viewBox="0 0 793.70667 224"
   sodipodi:docname="Princeton Logo.svg"
   inkscape:version="0.92.2 (5c3e80d, 2017-08-06)"><metadata
     id="metadata8"><rdf:RDF><cc:Work
         rdf:about=""><dc:format>image/svg+xml</dc:format><dc:type
           rdf:resource="http://purl.org/dc/dcmitype/StillImage" /><dc:title></dc:title></cc:Work></rdf:RDF></metadata><defs
     id="defs6"><clipPath
       clipPathUnits="userSpaceOnUse"
       id="clipPath18"><path
         d="M 0,168 H 595.28 V 0 H 0 Z"
         id="path16"
         inkscape:connector-curvature="0" /></clipPath><clipPath
       clipPathUnits="userSpaceOnUse"
       id="clipPath50"><path
         d="m 59.976,97.405 h 53.995 v 31.848 H 59.976 Z"
         id="path48"
         inkscape:connector-curvature="0" /></clipPath><clipPath
       clipPathUnits="userSpaceOnUse"
       id="clipPath62"><path
         d="M 0,168 H 595.28 V 0 H 0 Z"
         id="path60"
         inkscape:connector-curvature="0" /></clipPath></defs><sodipodi:namedview
     pagecolor="#ffffff"
     bordercolor="#666666"
     borderopacity="1"
     objecttolerance="10"
     gridtolerance="10"
     guidetolerance="10"
     inkscape:pageopacity="0"
     inkscape:pageshadow="2"
     inkscape:window-width="954"
     inkscape:window-height="563"
     id="namedview4"
     showgrid="false"
     inkscape:zoom="0.99532993"
     inkscape:cx="156.73195"
     inkscape:cy="112"
     inkscape:window-x="-16"
     inkscape:window-y="-16"
     inkscape:window-maximized="1"
     inkscape:current-layer="g10" /><g
     id="g10"
     inkscape:groupmode="layer"
     inkscape:label="princeton-university-seeklogo.com"
     transform="matrix(1.3333333,0,0,-1.3333333,0,224)"><g
       id="g12"><g
         id="g14"
         clip-path="url(#clipPath18)"><g
           id="g20"
           transform="translate(59.917,34.6465)"><path
             d="m 0,0 c 7.761,-9.808 16.827,-18.67 27.038,-26.297 10.098,7.528 19.217,16.327 27.079,26.223 L 27.016,26.279 Z"
             style="fill:#ef7b10;fill-opacity:1;fill-rule:nonzero;stroke:none"
             id="path22"
             inkscape:connector-curvature="0" /></g><g
           id="g24"
           transform="translate(47.3105,53.4922)"><path
             d="M 0,0 39.65,38.093 79.379,-0.1 c 6.596,11.727 11.606,24.564 14.689,38.279 0.14,0.654 0.254,1.297 0.394,1.944 H -15.124 C -12.165,26.003 -7.021,12.494 0,0"
             style="fill:#ef7b10;fill-opacity:1;fill-rule:nonzero;stroke:none"
             id="path26"
             inkscape:connector-curvature="0" /></g><g
           id="g28"
           transform="translate(47.2852,53.4922)"><path
             d="M 0,0 C 3.696,-6.587 7.923,-12.888 12.634,-18.851 L 39.651,7.434 66.752,-18.92 c 4.683,5.896 8.908,12.183 12.628,18.82 L 39.651,38.093 Z"
             style="fill:#ef7b10;fill-opacity:1;fill-rule:nonzero;stroke:none"
             id="path30"
             inkscape:connector-curvature="0" /></g><g
           id="g32"
           transform="translate(113.916,36.4355)"><path
             d="m 0,0 -26.104,25.394 -0.876,0.841 -0.869,-0.841 -26.026,-25.332 c -4.134,5.36 -7.901,10.986 -11.201,16.763 L -26.98,53.404 11.186,16.719 C 7.86,10.893 4.096,5.278 0,0"
             style="fill:#1d1d1b;fill-opacity:1;fill-rule:nonzero;stroke:none"
             id="path34"
             inkscape:connector-curvature="0" /></g><g
           id="g36"
           transform="translate(86.936,88.1265)"><path
             d="m 0,0 -36.532,-35.083 c 2.923,-5.049 6.203,-9.977 9.778,-14.676 l 25.019,24.347 1.735,1.688 1.736,-1.688 25.109,-24.415 c 3.55,4.661 6.822,9.572 9.766,14.638 z m 0,3.452 39.729,-38.193 c -3.72,-6.631 -7.951,-12.913 -12.628,-18.806 L 0,-27.195 -27.017,-53.48 c -4.716,5.958 -8.938,12.259 -12.634,18.851 L 0,3.452"
             style="fill:#1d1d1b;fill-opacity:1;fill-rule:nonzero;stroke:none"
             id="path38"
             inkscape:connector-curvature="0" /></g><g
           id="g40"
           transform="translate(144.2417,134.2329)"><path
             d="m 0,0 c -4.659,-1.415 -9.604,-2.182 -14.747,-2.182 -18.128,0 -33.968,9.522 -42.512,23.705 -8.555,-14.183 -24.387,-23.705 -42.523,-23.705 -5.129,0 -10.077,0.767 -14.725,2.169 -1.215,-13.84 -0.327,-27.493 2.417,-40.63 H -2.502 C 0.37,-26.944 1.14,-13.292 0,0"
             style="fill:#1d1d1b;fill-opacity:1;fill-rule:nonzero;stroke:none"
             id="path42"
             inkscape:connector-curvature="0" /></g></g></g><g
       id="g44"><g
         id="g46"
         clip-path="url(#clipPath50)"><g
           id="g52"
           transform="translate(113.9751,117.4707)"><path
             d="m 0,0 v 4.661 h -2.849 v 3.283 l -2.984,0.835 h -0.218 v 2.793 c 0,0 -1.029,-1.241 -5.749,-1.241 -4.48,0 -7.103,1.446 -10.656,1.446 -3.42,0 -4.474,-1.951 -4.474,-1.951 V 8.698 h -0.121 v 1.128 c 0,0 -1.06,1.951 -4.466,1.951 -3.56,0 -6.184,-1.453 -10.658,-1.453 -4.721,0 -5.536,1.234 -5.536,1.234 V 8.624 h -0.194 l -3.234,-0.68 V 4.661 h -2.867 V 0 h 2.867 v -7.535 h -2.867 v -4.668 h 2.867 v -5.794 c 0,0 4.786,-0.742 9.219,-0.742 5.241,0 8.263,0.754 11.666,0.823 v -1.47 c 0,0 1.371,-0.673 3.196,-0.673 1.851,0 3.312,0.673 3.312,0.673 v 1.47 c 3.396,-0.069 6.425,-0.823 11.691,-0.823 4.414,0 9.206,0.742 9.206,0.742 v 5.794 H 0 v 4.668 H -2.849 V 0 Z"
             style="fill:#ffffff;fill-opacity:1;fill-rule:nonzero;stroke:none"
             id="path54"
             inkscape:connector-curvature="0" /></g></g></g><g
       id="g56"><g
         id="g58"
         clip-path="url(#clipPath62)"><g
           id="g64"
           transform="translate(110.5669,99.7793)"><path
             d="m 0,0 c -1.219,-0.176 -5.098,-0.687 -8.719,-0.687 -5.181,0 -11.562,0.812 -11.624,0.816 l -0.561,0.088 v -1.706 c -0.487,-0.182 -1.564,-0.518 -2.814,-0.518 -1.234,0 -2.24,0.336 -2.707,0.504 v 1.72 L -26.98,0.129 c -0.072,-0.004 -6.459,-0.816 -11.606,-0.816 -3.627,0 -7.513,0.511 -8.731,0.687 v 25.1 c 0.452,0.094 1.814,0.386 2.478,0.517 V 2.885 c 0.24,-0.53 1.28,-1.739 6.035,-1.739 l 6.016,0.785 4.596,0.668 c 3.075,0 4.038,-1.633 4.085,-1.709 l 0.14,0.088 h 0.707 l 0.134,-0.088 c 0.037,0.076 0.987,1.709 4.038,1.709 l 4.596,-0.655 6.063,-0.798 c 4.817,0 6.022,1.265 6.144,1.416 L -2.19,25.735 C -1.558,25.562 -0.403,25.243 0,25.118 Z m -43.852,28.179 c 0.797,-0.4 2.228,-0.818 5.048,-0.818 l 6.056,0.799 4.593,0.66 c 3.026,0 3.983,-1.621 4.042,-1.702 V 2.305 c -0.742,0.611 -1.972,1.278 -4.079,1.278 l -4.804,-0.674 -5.808,-0.773 c -4.251,0 -5.138,1.022 -5.144,1.036 0,0 0.09,23.317 0.096,25.007 m 20.726,-1.061 c 0.037,0.063 0.987,1.702 4.038,1.702 l 4.596,-0.648 6.063,-0.797 c 2.942,0 4.434,0.455 5.262,0.846 V 2.916 C -3.223,3.04 -4.422,2.136 -8.429,2.136 l -5.851,0.78 -4.808,0.667 c -2.084,0 -3.312,-0.667 -4.038,-1.266 z m 20.944,-0.342 0.007,3.572 -0.864,-0.911 c -0.006,-0.012 -1.071,-1.073 -5.39,-1.073 l -5.851,0.78 -4.808,0.667 c -2.639,0 -3.954,-1.079 -4.537,-1.727 -0.573,0.648 -1.9,1.727 -4.53,1.727 l -4.804,-0.679 -5.845,-0.773 c -4.251,0 -5.138,1.016 -5.144,1.022 l -0.879,1.085 -0.012,-1.378 V 26.639 L -48.31,25.911 V -0.867 l 0.42,-0.062 c 0.05,-0.012 4.879,-0.754 9.304,-0.754 4.365,0 9.537,0.573 11.172,0.76 v -1.209 l 0.268,-0.143 c 0.063,-0.031 1.5,-0.729 3.428,-0.729 1.932,0 3.459,0.698 3.521,0.729 l 0.287,0.136 v 1.216 c 1.632,-0.187 6.808,-0.76 11.191,-0.76 4.412,0 9.248,0.742 9.291,0.754 l 0.421,0.062 v 26.752 z"
             style="fill:#1d1d1b;fill-opacity:1;fill-rule:nonzero;stroke:none"
             id="path66"
             inkscape:connector-curvature="0" /></g><g
           id="g68"
           transform="translate(73.7661,123.501)"><path
             d="m 0,0 c -0.39,-0.03 -0.645,-0.236 -0.76,-0.498 l -1.596,-3.551 c 0,0 -0.077,-0.057 -0.121,-0.057 -0.053,0 -0.116,0.057 -0.147,0.168 -0.037,0.125 -0.236,0.625 -0.651,1.596 l -0.517,1.153 c -0.184,0.43 -0.333,0.71 -0.383,0.798 -0.184,0.317 -0.414,0.354 -0.67,0.391 -0.031,0.039 -0.031,0.076 -0.031,0.102 0,0.042 0,0.062 0.024,0.117 h 0.263 c 0.298,0 0.547,-0.032 0.779,-0.032 0.261,0 0.695,0.039 0.993,0.039 h 0.174 c 0.026,-0.007 0.039,-0.076 0.039,-0.101 0,-0.023 0,-0.086 -0.02,-0.111 C -2.817,-0.012 -3.256,0 -3.256,-0.273 c 0,-0.056 0.006,-0.169 0.038,-0.236 l 1.046,-2.494 0.876,2.062 c 0.109,0.238 0.122,0.443 0.122,0.55 0,0.236 -0.175,0.335 -0.602,0.391 -0.012,0.032 -0.031,0.069 -0.031,0.102 0,0.03 0.019,0.085 0.031,0.124 h 0.122 c 0.193,0 0.388,-0.039 0.829,-0.039 0.077,0 0.377,0.032 0.516,0.032 L 0,0.219 C 0.019,0.169 0.037,0.15 0.037,0.113 0.037,0.088 0.019,0.032 0,0"
             style="fill:#1d1d1b;fill-opacity:1;fill-rule:nonzero;stroke:none"
             id="path70"
             inkscape:connector-curvature="0" /></g><g
           id="g72"
           transform="translate(78.2056,119.5264)"><path
             d="m 0,0 c -1.274,0 -1.963,0.03 -2.137,0.03 -0.134,0 -0.451,0.007 -0.604,0.007 -0.175,0 -0.583,-0.025 -1.029,-0.025 l -0.255,0.007 c -0.019,0.037 -0.019,0.055 -0.019,0.092 0,0.033 0,0.076 0.006,0.125 0.347,0.025 0.586,0.081 0.645,0.132 0.069,0.087 0.122,0.261 0.141,0.642 0,0.192 0.006,0.405 0.006,0.629 0,0.324 -0.006,0.717 -0.006,1.172 v 0.666 c -0.013,0.461 -0.237,0.461 -0.717,0.518 -0.007,0.042 -0.018,0.074 -0.018,0.105 0,0.025 0.011,0.101 0.04,0.112 h 0.234 c 0.155,0 0.575,-0.011 1.373,-0.011 0.726,0 1.434,-0.007 1.595,-0.007 0.094,0 0.377,-0.019 0.434,-0.019 0.097,0 0.14,-0.007 0.14,-0.094 L -0.115,3.135 C -0.171,3.096 -0.184,3.084 -0.233,3.084 c -0.041,0 -0.072,0 -0.091,0.012 -0.286,0.481 -0.421,0.58 -0.638,0.737 -0.075,0.049 -0.191,0.086 -0.371,0.105 -0.057,0 -0.203,0.013 -0.561,0.013 -0.287,0 -0.439,-0.013 -0.48,-0.013 -0.043,0 -0.038,0 -0.056,-0.167 C -2.436,3.676 -2.449,3.477 -2.449,2.929 V 2.386 h 0.147 c 0.184,0 0.37,0.013 0.48,0.044 0.158,0.044 0.336,0.155 0.426,0.299 0.038,0.05 0.076,0.281 0.098,0.349 0.024,0.018 0.074,0.025 0.132,0.025 0.039,0 0.076,-0.007 0.107,-0.025 -0.013,-0.167 -0.037,-0.493 -0.037,-0.897 0,-0.211 0.018,-0.66 0.018,-0.835 -0.044,-0.031 -0.062,-0.031 -0.115,-0.031 -0.031,0 -0.087,0 -0.121,0.005 -0.032,0.363 -0.094,0.606 -0.396,0.724 -0.165,0.074 -0.299,0.093 -0.471,0.093 -0.084,0 -0.193,-0.006 -0.274,-0.019 V 1.022 c 0,-0.256 0.019,-0.412 0.056,-0.499 0.025,-0.068 0.128,-0.211 0.25,-0.23 C -2.09,0.28 -1.978,0.261 -1.76,0.261 h 0.607 c 0.153,0 0.375,0.019 0.452,0.063 0.147,0.099 0.536,0.524 0.671,0.904 0.065,0.025 0.09,0.025 0.133,0.025 0.031,0 0.071,-0.014 0.121,-0.032 V 0.111 C 0.224,0.012 0.153,0 0,0"
             style="fill:#1d1d1b;fill-opacity:1;fill-rule:nonzero;stroke:none"
             id="path74"
             inkscape:connector-curvature="0" /></g><g
           id="g76"
           transform="translate(83.2632,122.3984)"><path
             d="m 0,0 c -0.031,0 -0.072,0.013 -0.116,0.013 -0.103,0.261 -0.211,0.498 -0.311,0.623 -0.175,0.219 -0.34,0.355 -0.779,0.406 -0.097,0.012 -0.334,0.012 -0.408,0.012 l -0.007,-1.857 c 0,-0.293 0,-0.629 0.007,-1.271 0.012,-0.486 0.221,-0.486 0.726,-0.555 0.031,-0.049 0.037,-0.093 0.037,-0.118 0,-0.044 -0.006,-0.063 -0.025,-0.107 H -1.06 c -0.286,0 -0.876,0.019 -1.059,0.019 -0.128,0 -0.767,-0.025 -1.072,-0.025 -0.025,0.05 -0.031,0.05 -0.031,0.113 0,0.025 0.006,0.069 0.018,0.111 0.677,0.051 0.745,0.169 0.764,0.386 0.022,0.132 0.022,0.693 0.022,1.253 v 1.528 c 0,0.199 -0.016,0.398 -0.041,0.523 -0.134,0 -0.542,0 -0.651,-0.051 C -3.452,0.878 -3.696,0.599 -3.958,0.081 -3.988,0.076 -4.042,0.076 -4.06,0.076 c -0.044,0 -0.081,0.005 -0.103,0.03 V 1.19 c 0,0.095 0.009,0.125 0.121,0.125 0.103,0 0.256,-0.012 0.461,-0.012 0.153,0 0.767,-0.007 1.53,-0.007 1.01,0 1.758,0.026 1.948,0.026 0.103,0 0.171,0 0.206,-0.037 0.012,-0.019 0,-0.095 0,-0.15 V 0.057 C 0.086,0.013 0.037,0 0,0"
             style="fill:#1d1d1b;fill-opacity:1;fill-rule:nonzero;stroke:none"
             id="path78"
             inkscape:connector-curvature="0" /></g><g
           id="g80"
           transform="translate(73.5605,115.8179)"><path
             d="m 0,0 c -0.037,0 -0.072,0.014 -0.128,0.014 -0.09,0.261 -0.196,0.497 -0.311,0.622 -0.162,0.219 -0.34,0.356 -0.773,0.405 -0.102,0.013 -0.34,0.013 -0.409,0.013 l -0.011,-1.857 c 0,-0.293 0,-0.63 0.011,-1.271 0.007,-0.486 0.231,-0.486 0.733,-0.562 0.034,-0.044 0.034,-0.087 0.034,-0.111 0,-0.044 0,-0.062 -0.022,-0.106 H -1.06 c -0.298,0 -0.888,0.019 -1.059,0.019 -0.127,0 -0.766,-0.026 -1.084,-0.026 -0.013,0.051 -0.019,0.051 -0.019,0.113 0,0.024 0.006,0.067 0.013,0.106 0.669,0.056 0.738,0.174 0.772,0.391 0.007,0.132 0.007,0.692 0.007,1.253 V 0.53 c 0,0.2 0,0.399 -0.026,0.524 -0.137,0 -0.551,0 -0.667,-0.051 C -3.459,0.879 -3.696,0.599 -3.957,0.081 -3.994,0.076 -4.045,0.076 -4.073,0.076 c -0.037,0 -0.068,0.005 -0.099,0.03 v 1.085 c 0,0.094 0.018,0.124 0.127,0.124 0.107,0 0.253,-0.011 0.459,-0.011 0.158,0 0.772,-0.007 1.539,-0.007 0.994,0 1.755,0.025 1.944,0.025 0.103,0 0.171,0 0.206,-0.037 0.012,-0.02 0,-0.094 0,-0.15 V 0.058 C 0.078,0.014 0.037,0 0,0"
             style="fill:#1d1d1b;fill-opacity:1;fill-rule:nonzero;stroke:none"
             id="path82"
             inkscape:connector-curvature="0" /></g><g
           id="g84"
           transform="translate(78.3613,112.9463)"><path
             d="m 0,0 c -1.261,0 -1.965,0.03 -2.13,0.03 -0.135,0 -0.447,0.007 -0.612,0.007 -0.168,0 -0.582,-0.025 -1.022,-0.025 l -0.249,0.007 c -0.025,0.037 -0.03,0.055 -0.03,0.092 0,0.032 0,0.076 0.018,0.12 0.346,0.03 0.586,0.086 0.632,0.137 0.081,0.087 0.122,0.261 0.14,0.635 0.007,0.199 0.02,0.412 0.02,0.636 0,0.324 -0.013,0.71 -0.013,1.171 0,0.336 -0.007,0.529 -0.007,0.667 -0.012,0.454 -0.224,0.454 -0.701,0.516 -0.022,0.044 -0.034,0.076 -0.034,0.107 0,0.025 0.019,0.094 0.053,0.106 h 0.221 c 0.169,0 0.577,-0.012 1.374,-0.012 0.739,0 1.434,-0.007 1.609,-0.007 0.08,0 0.376,-0.012 0.42,-0.012 0.109,0 0.146,-0.007 0.146,-0.094 l 0.05,-0.953 c -0.05,-0.032 -0.069,-0.044 -0.118,-0.044 -0.028,0 -0.059,0 -0.091,0.012 -0.274,0.481 -0.407,0.573 -0.639,0.735 -0.077,0.051 -0.177,0.088 -0.358,0.1 -0.055,0 -0.202,0.013 -0.574,0.013 -0.285,0 -0.438,-0.013 -0.469,-0.013 -0.053,0 -0.047,0 -0.066,-0.162 0,-0.1 -0.006,-0.292 -0.006,-0.84 V 2.386 h 0.133 c 0.191,0 0.378,0.012 0.481,0.044 0.171,0.044 0.337,0.155 0.433,0.299 0.031,0.05 0.075,0.281 0.09,0.349 0.038,0.018 0.088,0.031 0.132,0.031 0.046,0 0.09,-0.013 0.114,-0.031 -0.006,-0.169 -0.044,-0.493 -0.044,-0.898 0,-0.212 0.026,-0.66 0.026,-0.834 -0.05,-0.033 -0.056,-0.033 -0.116,-0.033 -0.037,0 -0.087,0 -0.127,0.007 -0.032,0.361 -0.081,0.606 -0.396,0.724 -0.165,0.074 -0.299,0.093 -0.458,0.093 -0.084,0 -0.196,-0.006 -0.28,-0.019 V 1.015 c 0,-0.255 0.018,-0.405 0.05,-0.493 0.034,-0.067 0.133,-0.21 0.249,-0.23 C -2.09,0.28 -1.972,0.261 -1.76,0.261 h 0.62 c 0.153,0 0.361,0.019 0.439,0.063 0.159,0.099 0.549,0.523 0.682,0.904 0.054,0.025 0.091,0.025 0.122,0.025 0.031,0 0.084,-0.014 0.122,-0.032 V 0.111 C 0.225,0.012 0.153,0 0,0"
             style="fill:#1d1d1b;fill-opacity:1;fill-rule:nonzero;stroke:none"
             id="path86"
             inkscape:connector-curvature="0" /></g><g
           id="g88"
           transform="translate(81.3184,112.8467)"><path
             d="m 0,0 c -0.352,0 -0.735,0.137 -0.972,0.255 -0.037,0.018 -0.118,0.037 -0.158,0.037 -0.044,0 -0.173,-0.068 -0.307,-0.167 -0.102,0 -0.217,0.049 -0.249,0.13 0,0.08 0.085,0.342 0.085,0.511 0,0.099 -0.035,0.58 -0.041,0.679 0.041,0.063 0.115,0.093 0.181,0.093 h 0.068 c 0.09,-0.181 0.263,-0.636 0.39,-0.816 0.268,-0.299 0.651,-0.442 0.932,-0.442 0.314,0 0.548,0.055 0.682,0.206 0.193,0.187 0.237,0.298 0.237,0.504 0,0.15 -0.032,0.286 -0.122,0.381 C 0.617,1.508 0.53,1.563 0.293,1.681 0.1,1.769 -0.542,1.931 -0.779,2.063 c -0.292,0.129 -0.432,0.254 -0.579,0.404 -0.181,0.224 -0.243,0.53 -0.243,0.766 0,0.674 0.53,1.185 1.287,1.185 0.283,0 0.669,-0.039 1.003,-0.293 C 0.757,4.199 0.848,4.287 0.938,4.361 1.059,4.361 1.14,4.293 1.153,4.25 1.14,4.155 1.09,3.887 1.09,3.676 1.09,3.563 1.153,3.122 1.153,3.047 1.11,3.029 1.059,2.997 0.988,2.997 0.969,2.997 0.938,3.003 0.919,3.008 0.798,3.214 0.689,3.558 0.561,3.744 0.371,4.007 0.1,4.1 -0.274,4.1 -0.688,4.1 -1.028,3.832 -1.028,3.477 -1.028,3.133 -0.748,2.966 -0.517,2.86 -0.339,2.798 -0.128,2.71 0.116,2.636 0.427,2.529 0.664,2.449 0.785,2.386 1.274,2.13 1.48,1.769 1.48,1.276 1.48,0.498 0.779,0 0,0"
             style="fill:#1d1d1b;fill-opacity:1;fill-rule:nonzero;stroke:none"
             id="path90"
             inkscape:connector-curvature="0" /></g><g
           id="g92"
           transform="translate(75.252,106.3525)"><path
             d="m 0,0 c -1.277,0 -1.965,0.032 -2.138,0.032 -0.133,0 -0.454,0.005 -0.607,0.005 -0.171,0 -0.579,-0.023 -1.025,-0.023 l -0.255,0.005 c -0.022,0.037 -0.022,0.057 -0.022,0.094 0,0.03 0,0.081 0.009,0.125 0.343,0.023 0.586,0.081 0.642,0.13 0.072,0.094 0.122,0.261 0.141,0.642 0,0.192 0.005,0.405 0.005,0.629 0,0.324 -0.005,0.717 -0.005,1.172 v 0.666 c -0.013,0.462 -0.234,0.462 -0.714,0.518 -0.007,0.044 -0.018,0.074 -0.018,0.106 0,0.024 0.011,0.1 0.037,0.111 h 0.237 c 0.152,0 0.573,-0.011 1.371,-0.011 0.728,0 1.436,-0.007 1.595,-0.007 0.096,0 0.377,-0.012 0.436,-0.012 0.093,0 0.14,-0.007 0.14,-0.099 L -0.115,3.135 C -0.171,3.103 -0.184,3.084 -0.236,3.084 c -0.038,0 -0.069,0 -0.091,0.019 -0.287,0.474 -0.42,0.573 -0.635,0.73 -0.079,0.049 -0.194,0.093 -0.371,0.106 -0.059,0 -0.206,0.012 -0.561,0.012 -0.29,0 -0.442,-0.012 -0.48,-0.012 -0.043,0 -0.038,0 -0.056,-0.168 C -2.436,3.676 -2.452,3.477 -2.452,2.929 V 2.386 h 0.15 c 0.184,0 0.368,0.013 0.476,0.044 0.159,0.044 0.34,0.162 0.427,0.3 0.041,0.049 0.079,0.28 0.097,0.349 0.025,0.024 0.078,0.037 0.134,0.037 0.037,0 0.078,-0.013 0.109,-0.037 -0.013,-0.168 -0.037,-0.487 -0.037,-0.897 0,-0.212 0.018,-0.654 0.018,-0.836 -0.047,-0.031 -0.066,-0.031 -0.115,-0.031 -0.031,0 -0.09,0 -0.121,0.007 -0.032,0.361 -0.098,0.604 -0.396,0.729 -0.165,0.069 -0.299,0.087 -0.474,0.087 -0.081,0 -0.19,-0.007 -0.274,-0.018 V 1.022 c 0,-0.255 0.022,-0.412 0.059,-0.498 0.025,-0.062 0.128,-0.212 0.25,-0.231 0.055,-0.011 0.171,-0.032 0.389,-0.032 h 0.604 c 0.154,0 0.378,0.021 0.455,0.063 0.147,0.099 0.536,0.524 0.67,0.91 C 0.031,1.26 0.057,1.26 0.103,1.26 0.134,1.26 0.172,1.246 0.224,1.223 V 0.113 C 0.224,0.014 0.152,0 0,0"
             style="fill:#1d1d1b;fill-opacity:1;fill-rule:nonzero;stroke:none"
             id="path94"
             inkscape:connector-curvature="0" /></g><g
           id="g96"
           transform="translate(81.3774,110.3477)"><path
             d="m 0,0 c -0.43,-0.019 -0.797,-0.256 -0.797,-0.935 l -0.006,-2.156 c 0,-0.088 0.037,-0.699 0.037,-0.934 -0.072,-0.033 -0.14,-0.063 -0.171,-0.063 -0.028,0 -0.066,0.03 -0.116,0.063 l -2.963,3.19 0.028,-0.649 0.012,-1.177 c 0,-0.088 0.019,-0.312 0.038,-0.481 0.019,-0.266 0.103,-0.347 0.218,-0.441 0.14,-0.13 0.38,-0.169 0.561,-0.188 0.018,-0.03 0.025,-0.062 0.025,-0.093 0,-0.013 -0.007,-0.075 -0.038,-0.113 h -0.32 c -0.274,0 -0.484,0.007 -0.764,0.007 -0.193,0 -0.449,-0.018 -0.633,-0.018 h -0.14 c -0.006,0.03 -0.006,0.081 -0.006,0.099 0,0.025 0,0.056 0.019,0.106 0.208,0.019 0.548,0.118 0.67,0.294 0.049,0.104 0.069,0.298 0.069,0.504 v 1.507 c 0,0.244 -0.013,0.368 -0.02,0.606 -0.012,0.192 -0.049,0.342 -0.152,0.454 -0.006,0.032 -0.102,0.125 -0.203,0.224 -0.09,0.081 -0.327,0.143 -0.473,0.206 -0.019,0.037 -0.025,0.087 -0.025,0.087 0,0.037 0.006,0.088 0.025,0.118 h 0.109 c 0.09,0 0.548,-0.025 0.894,-0.025 h 0.203 C -3.882,0.173 -3.81,0.136 -3.792,0.099 L -1.595,-2.3 c 0.165,-0.174 0.38,-0.424 0.496,-0.579 v 1.739 c 0,0.224 -0.013,0.391 -0.026,0.479 -0.018,0.175 -0.049,0.337 -0.121,0.443 -0.068,0.118 -0.477,0.167 -0.688,0.218 -0.025,0.037 -0.025,0.087 -0.025,0.13 0,0.02 0,0.043 0.012,0.087 h 0.128 c 0.202,0 0.536,-0.03 0.738,-0.03 0.505,0 0.658,0.019 0.914,0.019 L 0,0.206 C 0.019,0.168 0.019,0.13 0.019,0.099 0.019,0.074 0.019,0.03 0,0"
             style="fill:#1d1d1b;fill-opacity:1;fill-rule:nonzero;stroke:none"
             id="path98"
             inkscape:connector-curvature="0" /></g><g
           id="g100"
           transform="translate(95.23,123.5215)"><path
             d="m 0,0 c -0.423,-0.021 -0.797,-0.256 -0.797,-0.941 v -2.15 c 0,-0.088 0.031,-0.699 0.031,-0.936 -0.059,-0.031 -0.14,-0.068 -0.171,-0.068 -0.028,0 -0.054,0.037 -0.116,0.068 l -2.963,3.191 0.04,-0.655 0.007,-1.17 c 0,-0.095 0.019,-0.312 0.031,-0.481 0.031,-0.268 0.103,-0.349 0.218,-0.448 0.153,-0.125 0.396,-0.162 0.561,-0.181 0.018,-0.03 0.025,-0.069 0.025,-0.099 0,-0.014 -0.007,-0.069 -0.025,-0.107 h -0.333 c -0.262,0 -0.477,0.007 -0.763,0.007 -0.194,0 -0.443,-0.018 -0.621,-0.018 h -0.14 c -0.012,0.03 -0.018,0.081 -0.018,0.099 0,0.019 0,0.049 0.024,0.106 0.202,0.019 0.542,0.118 0.664,0.292 0.056,0.106 0.069,0.3 0.069,0.506 v 1.501 c 0,0.25 0,0.374 -0.013,0.61 -0.006,0.187 -0.056,0.344 -0.147,0.449 -0.018,0.032 -0.103,0.132 -0.214,0.231 -0.085,0.074 -0.328,0.143 -0.474,0.206 -0.006,0.037 -0.019,0.087 -0.019,0.087 0,0.031 0.013,0.087 0.019,0.118 h 0.115 c 0.084,0 0.542,-0.025 0.888,-0.025 h 0.203 C -3.882,0.173 -3.81,0.13 -3.785,0.099 L -1.583,-2.3 c 0.166,-0.174 0.377,-0.424 0.49,-0.58 v 1.738 c 0,0.22 -0.019,0.393 -0.032,0.474 -0.005,0.181 -0.049,0.342 -0.121,0.449 -0.068,0.113 -0.476,0.168 -0.682,0.219 -0.019,0.037 -0.031,0.086 -0.031,0.123 0,0.02 0,0.05 0.024,0.094 h 0.128 c 0.206,0 0.53,-0.031 0.732,-0.031 0.499,0 0.667,0.02 0.919,0.02 L 0,0.206 C 0.019,0.162 0.031,0.123 0.031,0.099 0.031,0.074 0.019,0.03 0,0"
             style="fill:#1d1d1b;fill-opacity:1;fill-rule:nonzero;stroke:none"
             id="path102"
             inkscape:connector-curvature="0" /></g><g
           id="g104"
           transform="translate(98.9131,123.1216)"><path
             d="m 0,0 c -0.206,0.275 -0.461,0.442 -0.834,0.442 -0.353,0 -0.577,-0.162 -0.78,-0.442 -0.249,-0.317 -0.389,-0.834 -0.389,-1.489 0,-0.642 0.14,-1.147 0.371,-1.464 0.215,-0.312 0.458,-0.474 0.829,-0.474 0.445,0 0.7,0.218 0.906,0.579 0.19,0.319 0.274,0.767 0.274,1.347 C 0.377,-0.804 0.243,-0.317 0,0 m 0.682,-3.072 c -0.408,-0.398 -0.974,-0.63 -1.498,-0.63 -0.498,0 -1.072,0.213 -1.468,0.599 -0.442,0.423 -0.633,0.985 -0.633,1.602 0,0.597 0.191,1.166 0.633,1.589 0.465,0.442 0.97,0.636 1.481,0.636 0.364,0 0.7,-0.107 1.108,-0.319 0.645,-0.417 1.028,-1.108 1.028,-1.869 0,-0.586 -0.236,-1.179 -0.651,-1.608"
             style="fill:#1d1d1b;fill-opacity:1;fill-rule:nonzero;stroke:none"
             id="path106"
             inkscape:connector-curvature="0" /></g><g
           id="g108"
           transform="translate(105.5615,123.501)"><path
             d="m 0,0 c -0.376,-0.03 -0.632,-0.236 -0.744,-0.498 l -1.595,-3.551 c 0,0 -0.078,-0.057 -0.128,-0.057 -0.052,0 -0.121,0.057 -0.15,0.168 -0.037,0.125 -0.227,0.625 -0.657,1.596 l -0.507,1.153 c -0.188,0.43 -0.327,0.71 -0.378,0.798 -0.199,0.317 -0.42,0.354 -0.67,0.391 -0.046,0.039 -0.046,0.076 -0.046,0.102 0,0.042 0,0.062 0.034,0.117 h 0.262 c 0.292,0 0.542,-0.032 0.769,-0.032 0.262,0 0.698,0.039 1.003,0.039 h 0.164 C -2.6,0.219 -2.588,0.15 -2.588,0.125 c 0,-0.023 0,-0.086 -0.029,-0.111 C -2.813,-0.012 -3.246,0 -3.246,-0.273 c 0,-0.056 0,-0.169 0.037,-0.236 l 1.041,-2.494 0.885,2.062 c 0.096,0.238 0.11,0.443 0.11,0.55 0,0.236 -0.173,0.335 -0.599,0.391 -0.012,0.032 -0.025,0.069 -0.025,0.102 0,0.03 0.013,0.085 0.025,0.124 h 0.121 c 0.191,0 0.39,-0.039 0.835,-0.039 0.072,0 0.378,0.032 0.524,0.032 H 0.014 C 0.032,0.169 0.037,0.15 0.037,0.113 0.037,0.088 0.032,0.032 0,0"
             style="fill:#1d1d1b;fill-opacity:1;fill-rule:nonzero;stroke:none"
             id="path110"
             inkscape:connector-curvature="0" /></g><g
           id="g112"
           transform="translate(93.8564,115.8179)"><path
             d="m 0,0 c -0.038,0 -0.069,0.014 -0.125,0.014 -0.09,0.261 -0.199,0.497 -0.314,0.622 -0.16,0.219 -0.336,0.356 -0.773,0.405 -0.1,0.013 -0.337,0.013 -0.409,0.013 l -0.012,-1.857 c 0,-0.293 0,-0.63 0.012,-1.271 0.007,-0.486 0.232,-0.486 0.736,-0.562 0.031,-0.044 0.031,-0.087 0.031,-0.111 0,-0.044 0,-0.062 -0.019,-0.106 H -1.06 c -0.299,0 -0.884,0.019 -1.056,0.019 -0.128,0 -0.766,-0.026 -1.087,-0.026 -0.013,0.051 -0.019,0.051 -0.019,0.113 0,0.024 0.006,0.067 0.013,0.106 0.669,0.056 0.741,0.174 0.772,0.391 0.006,0.132 0.006,0.692 0.006,1.253 V 0.53 c 0,0.2 0,0.399 -0.024,0.524 -0.134,0 -0.549,0 -0.664,-0.051 C -3.458,0.879 -3.692,0.599 -3.954,0.081 -3.995,0.076 -4.044,0.076 -4.069,0.076 c -0.038,0 -0.072,0.005 -0.103,0.03 v 1.085 c 0,0.094 0.019,0.124 0.128,0.124 0.108,0 0.255,-0.011 0.458,-0.011 0.162,0 0.773,-0.007 1.539,-0.007 0.997,0 1.754,0.025 1.947,0.025 0.1,0 0.172,0 0.203,-0.037 0.012,-0.02 0,-0.094 0,-0.15 V 0.058 C 0.078,0.014 0.041,0 0,0"
             style="fill:#1d1d1b;fill-opacity:1;fill-rule:nonzero;stroke:none"
             id="path114"
             inkscape:connector-curvature="0" /></g><g
           id="g116"
           transform="translate(96.2393,116.2803)"><path
             d="m 0,0 h -0.012 c -0.091,-0.169 -0.243,-0.524 -0.299,-0.687 -0.218,-0.541 -0.303,-0.728 -0.34,-0.802 H 0.602 C 0.511,-1.234 0.184,-0.467 0,0 M 2.655,-3.341 H 2.321 c -0.208,0 -0.457,0.032 -0.706,0.032 -0.402,0 -0.901,-0.032 -1.097,-0.032 -0.018,0.026 -0.031,0.063 -0.031,0.118 0,0.019 0.013,0.063 0.024,0.088 0.408,0.018 0.568,0.088 0.568,0.256 0,0.067 0,0.204 -0.128,0.542 -0.128,0.312 -0.19,0.448 -0.225,0.529 -0.012,0.032 -0.024,0.044 -0.112,0.044 h -1.327 c -0.084,-0.1 -0.193,-0.4 -0.308,-0.804 -0.032,-0.107 -0.032,-0.206 -0.032,-0.244 0,-0.136 0.128,-0.291 0.595,-0.305 0.032,-0.043 0.032,-0.087 0.032,-0.106 0,-0.037 0,-0.067 -0.013,-0.106 h -0.115 c -0.315,0 -0.396,0.02 -0.729,0.02 -0.215,0 -0.726,-0.02 -0.897,-0.02 -0.016,0.039 -0.029,0.051 -0.029,0.095 0,0.025 0,0.055 0.029,0.099 0.246,0.062 0.476,0.125 0.597,0.319 0.066,0.086 0.287,0.479 0.53,1.082 0.237,0.562 0.524,1.272 0.645,1.565 0.172,0.368 0.237,0.486 0.294,0.61 0.084,0.188 0.186,0.375 0.217,0.442 0.044,0.051 0.134,0.076 0.172,0.076 0.065,0 0.153,-0.037 0.184,-0.087 C 0.5,0.797 0.542,0.716 0.555,0.666 0.798,0.086 0.988,-0.43 1.297,-1.147 1.45,-1.509 1.524,-1.746 1.692,-2.12 1.808,-2.356 1.876,-2.543 1.992,-2.756 2.15,-3.073 2.4,-3.073 2.655,-3.142 c 0.006,-0.03 0.037,-0.062 0.037,-0.092 0,-0.044 -0.018,-0.063 -0.037,-0.107"
             style="fill:#1d1d1b;fill-opacity:1;fill-rule:nonzero;stroke:none"
             id="path118"
             inkscape:connector-curvature="0" /></g><g
           id="g120"
           transform="translate(105.3882,112.9463)"><path
             d="m 0,0 -1.705,0.019 h -0.467 c -0.012,0.037 -0.025,0.081 -0.025,0.106 0,0.055 0.013,0.062 0.035,0.106 0.093,0.005 0.317,0 0.42,0.042 0.177,0.076 0.242,0.249 0.242,0.506 v 2.442 0.58 H -1.508 L -2.4,1.831 C -2.503,1.621 -2.617,1.39 -2.714,1.152 -2.917,0.698 -3.02,0.386 -3.082,0.199 -3.117,0.125 -3.179,0.125 -3.216,0.125 c -0.059,0 -0.096,0.018 -0.127,0.111 -0.116,0.256 -0.2,0.423 -0.238,0.524 L -4.979,3.845 H -5.01 V 3.059 l 0.031,-1.963 c 0,-0.604 0.308,-0.886 0.785,-0.886 0.018,-0.03 0.04,-0.085 0.04,-0.099 0,-0.025 -0.007,-0.062 -0.028,-0.099 C -4.213,0.012 -4.31,0 -4.396,0 -4.457,0 -4.762,0.03 -5.213,0.03 -5.335,0.03 -5.602,0.019 -5.802,0.019 h -0.287 c -0.013,0.037 -0.018,0.067 -0.018,0.106 0,0.005 0.005,0.055 0.018,0.085 0.122,0.026 0.53,0.125 0.614,0.213 0.088,0.095 0.171,0.262 0.171,0.686 v 0.984 1.172 c -0.011,0.342 -0.05,0.48 -0.217,0.591 -0.069,0.044 -0.331,0.075 -0.555,0.114 -0.026,0.037 -0.031,0.08 -0.031,0.111 0,0.025 0.005,0.069 0.031,0.113 0.159,0 0.452,-0.019 0.748,-0.019 h 1.018 c 0.048,-0.025 0.06,-0.05 0.091,-0.106 l 1.249,-2.841 0.224,0.566 c 0.2,0.456 0.481,1.154 0.876,1.882 0.094,0.169 0.197,0.38 0.256,0.492 l 1.595,0.026 C 0,4.157 0.019,4.125 0.019,4.087 0.019,4.05 0.012,4.025 -0.014,3.988 -0.187,3.951 -0.486,3.951 -0.632,3.713 -0.683,3.625 -0.717,3.558 -0.717,3.216 V 1.184 c 0,-0.779 0.199,-0.86 0.29,-0.911 C -0.378,0.236 -0.135,0.21 0,0.21 0.019,0.168 0.03,0.143 0.03,0.1 0.03,0.049 0.012,0.037 0,0"
             style="fill:#1d1d1b;fill-opacity:1;fill-rule:nonzero;stroke:none"
             id="path122"
             inkscape:connector-curvature="0" /></g><g
           id="g124"
           transform="translate(93.7598,109.231)"><path
             d="m 0,0 c -0.037,0 -0.068,0.014 -0.127,0.014 -0.088,0.261 -0.197,0.497 -0.312,0.617 -0.159,0.217 -0.34,0.354 -0.773,0.411 -0.102,0.012 -0.337,0.012 -0.408,0.012 l -0.012,-1.857 c 0,-0.3 0,-0.635 0.012,-1.278 0.006,-0.485 0.23,-0.485 0.735,-0.555 0.031,-0.044 0.031,-0.093 0.031,-0.117 0,-0.044 0,-0.063 -0.019,-0.107 h -0.186 c -0.299,0 -0.885,0.019 -1.06,0.019 -0.127,0 -0.763,-0.024 -1.084,-0.024 -0.012,0.049 -0.019,0.049 -0.019,0.112 0,0.024 0.007,0.073 0.013,0.112 0.669,0.049 0.741,0.167 0.772,0.387 0.007,0.136 0.007,0.691 0.007,1.253 v 1.532 c 0,0.193 0,0.391 -0.026,0.523 -0.133,0 -0.547,0 -0.663,-0.055 -0.34,-0.125 -0.573,-0.407 -0.835,-0.923 -0.04,-0.007 -0.09,-0.007 -0.115,-0.007 -0.041,0 -0.072,0.007 -0.103,0.033 v 1.084 c 0,0.092 0.018,0.129 0.128,0.129 0.109,0 0.255,-0.011 0.458,-0.011 0.162,0 0.772,-0.014 1.539,-0.014 0.994,0 1.755,0.032 1.947,0.032 0.1,0 0.172,0 0.203,-0.044 0.012,-0.018 0,-0.092 0,-0.15 V 0.051 C 0.078,0.014 0.041,0 0,0"
             style="fill:#1d1d1b;fill-opacity:1;fill-rule:nonzero;stroke:none"
             id="path126"
             inkscape:connector-curvature="0" /></g><g
           id="g128"
           transform="translate(98.9814,110.3291)"><path
             d="m 0,0 c -0.377,-0.032 -0.632,-0.238 -0.748,-0.5 l -1.595,-3.544 c 0,0 -0.074,-0.062 -0.127,-0.062 -0.05,0 -0.122,0.062 -0.147,0.167 -0.037,0.131 -0.23,0.624 -0.657,1.595 l -0.511,1.153 c -0.185,0.43 -0.324,0.71 -0.374,0.798 -0.199,0.324 -0.424,0.356 -0.673,0.393 -0.044,0.037 -0.044,0.074 -0.044,0.099 0,0.044 0,0.069 0.031,0.118 h 0.262 c 0.296,0 0.542,-0.025 0.773,-0.025 0.261,0 0.695,0.032 1.003,0.032 h 0.165 c 0.038,-0.007 0.05,-0.069 0.05,-0.099 0,-0.026 0,-0.088 -0.025,-0.113 C -2.813,-0.014 -3.25,0 -3.25,-0.275 c 0,-0.049 0,-0.169 0.041,-0.236 l 1.038,-2.488 0.888,2.058 c 0.096,0.236 0.109,0.441 0.109,0.548 0,0.236 -0.172,0.342 -0.602,0.393 -0.012,0.03 -0.025,0.067 -0.025,0.099 0,0.031 0.013,0.093 0.025,0.125 h 0.122 c 0.193,0 0.389,-0.032 0.838,-0.032 0.068,0 0.377,0.025 0.524,0.025 H 0.013 C 0.031,0.173 0.038,0.155 0.038,0.111 0.038,0.087 0.031,0.03 0,0"
             style="fill:#1d1d1b;fill-opacity:1;fill-rule:nonzero;stroke:none"
             id="path130"
             inkscape:connector-curvature="0" /></g><g
           id="g132"
           transform="translate(105.4756,106.3525)"><path
             d="m 0,0 -1.693,0.019 h -0.475 c -0.018,0.037 -0.018,0.081 -0.018,0.106 0,0.062 0,0.069 0.022,0.113 0.1,0.005 0.319,0 0.434,0.037 0.165,0.074 0.231,0.249 0.231,0.504 v 2.444 c 0,0 0.012,0.453 0.012,0.578 H -1.506 L -2.388,1.838 C -2.502,1.621 -2.605,1.39 -2.714,1.153 -2.911,0.705 -3.02,0.386 -3.083,0.206 -3.101,0.125 -3.173,0.125 -3.216,0.125 c -0.053,0 -0.091,0.018 -0.128,0.118 -0.109,0.256 -0.187,0.418 -0.224,0.524 L -4.979,3.845 H -5.011 V 3.061 l 0.032,-1.963 c 0.015,-0.599 0.308,-0.879 0.797,-0.879 0.022,-0.032 0.028,-0.094 0.028,-0.106 0,-0.025 0,-0.062 -0.021,-0.099 C -4.213,0.014 -4.294,0 -4.397,0 c -0.059,0 -0.358,0.032 -0.804,0.032 -0.133,0 -0.402,-0.013 -0.595,-0.013 h -0.281 c -0.018,0.037 -0.031,0.069 -0.031,0.106 0,0.006 0.013,0.062 0.031,0.094 0.11,0.024 0.524,0.118 0.614,0.204 0.075,0.095 0.159,0.264 0.159,0.686 l 0.007,0.992 -0.007,1.166 C -5.316,3.609 -5.347,3.745 -5.522,3.858 -5.59,3.907 -5.853,3.939 -6.07,3.97 c -0.025,0.037 -0.038,0.081 -0.038,0.113 0,0.023 0.013,0.074 0.038,0.118 0.153,0 0.461,-0.019 0.741,-0.019 h 1.035 c 0.031,-0.025 0.049,-0.057 0.075,-0.113 l 1.252,-2.835 0.234,0.567 c 0.187,0.449 0.48,1.147 0.875,1.882 0.084,0.162 0.191,0.374 0.256,0.492 L -0.02,4.201 C 0,4.164 0.03,4.125 0.03,4.088 0.03,4.051 0.012,4.025 -0.013,3.988 -0.172,3.958 -0.48,3.958 -0.621,3.715 -0.671,3.634 -0.717,3.558 -0.717,3.216 V 1.184 c 0,-0.779 0.199,-0.86 0.296,-0.909 C -0.377,0.243 -0.135,0.219 0,0.219 0.03,0.175 0.037,0.143 0.037,0.1 0.037,0.051 0.019,0.037 0,0"
             style="fill:#1d1d1b;fill-opacity:1;fill-rule:nonzero;stroke:none"
             id="path134"
             inkscape:connector-curvature="0" /></g><g
           id="g136"
           transform="translate(202.3506,121.8198)"><path
             d="m 0,0 c 0,4.069 -2.334,7.87 -5.8,9.434 -1.787,0.774 -4.937,1.253 -9.711,1.253 -4.181,0 -10.697,-0.324 -13.565,-0.324 -2.01,0 -5.049,0.224 -6.727,0.224 -0.172,-0.275 -0.282,-0.654 -0.282,-0.872 0,-0.219 0,-0.816 0.165,-1.084 1.029,-0.331 2.715,-0.592 3.805,-0.874 0.914,-0.809 1.135,-1.519 1.462,-3.091 0.158,-1.9 0.273,-4.293 0.273,-8.412 0,-11.446 -0.059,-17.467 -0.218,-18.769 -0.215,-1.639 -1.301,-3.308 -3.099,-3.851 -0.816,-0.162 -2.01,-0.435 -3.142,-0.542 -0.049,-0.275 -0.115,-0.654 -0.115,-1.139 0,-0.437 0.066,-0.5 0.162,-0.768 1.736,0 6.839,0.224 8.8,0.224 4.828,0 9.767,-0.224 11.764,-0.224 h 1.368 c 0.165,0.224 0.165,0.604 0.165,0.867 0,0.33 0,0.765 -0.115,0.978 -1.627,0.211 -4.072,0.541 -5.098,1.744 -0.541,0.642 -1.092,1.571 -1.092,3.197 l -0.166,11.94 c 3.262,-0.218 6.739,-0.324 8.633,-0.324 2.495,0 4.609,0.423 6.292,0.971 C -2.388,-7.983 0,-4.175 0,0 m -9.707,0.224 c 0,-2.774 -0.981,-5.216 -2.766,-6.786 -1.138,-0.922 -2.939,-1.465 -5.649,-1.465 -1.135,0 -2.01,0.044 -2.327,0.099 -0.437,0.063 -0.717,0.107 -0.717,0.393 L -21.1,8.356 c 0.651,0.044 1.567,0.275 3.148,0.275 3.69,0 5.969,-0.923 7.053,-3.21 0.753,-1.451 1.192,-3.303 1.192,-5.197 m 58.925,-28.117 c 0,0.275 -0.108,0.923 -0.268,1.134 -0.541,0 -2.762,0.113 -3.58,0.717 -0.267,0.318 -0.703,0.973 -0.925,1.359 -0.711,2.485 -1.514,4.175 -2.33,6.231 -1.147,2.717 -2.717,5.271 -4.02,6.469 -0.486,0.423 -2.169,1.133 -4.073,1.782 -0.865,0.324 -1.566,0.597 -2.217,0.865 0.809,0.162 1.194,0.232 2.217,0.319 4.024,0.497 4.939,1.196 5.968,2.018 2.177,1.633 3.371,4.121 3.371,7.055 0,4.4 -2.823,8.619 -6.784,9.877 -1.308,0.379 -3.633,0.591 -6.508,0.591 -4.072,0 -9.771,-0.379 -12.482,-0.379 -0.816,0 -5.54,0.111 -7.441,0.111 -0.809,0 -2.871,0.107 -3.195,0.107 C 6.782,9.983 6.683,9.558 6.683,9.329 6.683,9.117 6.732,8.573 6.782,8.356 7.708,8.25 9.393,8.039 10.263,7.87 11.555,6.892 11.998,6.131 12.54,4.934 c 0.274,-1.732 0.323,-6.18 0.323,-13.833 0,-5.533 0.059,-11.939 -0.214,-14.009 -0.162,-1.345 -0.651,-2.966 -2.228,-3.62 -0.704,-0.118 -2.009,-0.331 -3.087,-0.38 -0.176,-0.275 -0.278,-0.816 -0.278,-1.084 0,-0.169 0.102,-0.599 0.219,-0.874 0.766,0 9.066,0.158 10.796,0.158 3.471,0 6.408,-0.158 9.496,-0.158 0.116,0.213 0.216,0.599 0.216,0.819 0,0.367 -0.1,0.915 -0.216,1.139 -1.085,0.107 -2.439,0.424 -3.032,0.542 -1.358,0.642 -2.343,1.944 -2.343,3.851 l -0.05,12.525 c 0.428,0.069 0.976,0.069 1.411,0.069 0.702,0 1.518,-0.125 2.877,-0.871 2.004,-1.143 2.988,-1.964 4.287,-3.97 1.739,-2.712 2.879,-7.697 3.415,-11.667 0.165,-1.133 0.602,-2.118 1.632,-2.224 0.43,-0.055 3.312,-0.162 5.375,-0.162 h 7.758 c 0.213,0.224 0.321,0.654 0.321,0.922 M 33.488,0.486 c 0,-3.364 -2.279,-7.216 -4.94,-7.864 -1.084,-0.275 -2.448,-0.443 -4.445,-0.443 -0.55,0 -1.368,0 -2.01,0.118 l -0.059,4.612 v 9.983 c 0,0.648 0.158,1.034 0.327,1.196 0.159,0.162 1.14,0.312 2.284,0.312 4.23,0 6.072,-0.361 7.593,-2.916 0.86,-1.472 1.25,-3.149 1.25,-4.998 m 43.513,-28.323 c 0,0.275 -0.059,0.867 -0.162,1.078 -0.817,0.062 -3.034,0.275 -4.012,0.492 -0.873,1.041 -1.474,2.226 -1.845,4.176 -0.056,2.612 -0.116,7.983 -0.116,13.03 V 4.287 c 0,1.463 0.595,2.605 0.985,2.936 1.035,0.971 3.087,1.177 4.829,1.408 0.11,0.21 0.159,0.803 0.159,1.027 0,0.325 -0.159,0.76 -0.268,0.866 h -1.579 c -2.282,0 -7.597,-0.268 -9.442,-0.268 -1.14,0 -6.455,0.162 -8.841,0.213 h -1.194 c -0.165,-0.213 -0.268,-0.424 -0.268,-0.911 0,-0.229 0.044,-0.772 0.103,-1.034 2.668,-0.224 3.855,-0.485 4.237,-0.767 0.648,-0.486 1.567,-1.681 1.793,-4.604 0.052,-1.035 0.101,-3.259 0.152,-8.251 0.059,-2.723 0.114,-6.511 0.114,-9.664 0,-1.571 -0.114,-5.098 -0.165,-6.992 -0.101,-1.308 -0.383,-2.555 -0.753,-3.26 -0.651,-0.541 -1.309,-1.514 -5.262,-1.787 -0.116,-0.22 -0.175,-0.923 -0.175,-1.147 0,-0.43 0.116,-0.643 0.116,-0.918 h 0.919 c 2.174,0 7.599,0.275 10.418,0.275 0.82,0 6.454,-0.161 8.248,-0.161 h 1.798 c 0.152,0.268 0.211,0.705 0.211,0.915 M 130.65,9.771 c 0,0.212 -0.055,0.592 -0.161,0.753 h -1.252 c -2.712,0 -4.45,-0.106 -9.341,-0.106 -1.67,0 -4.174,0.106 -4.773,0.106 h -1.408 c -0.162,-0.106 -0.225,-0.704 -0.225,-0.922 0,-0.273 0.063,-0.703 0.287,-0.927 0.865,-0.275 4.175,-0.636 5.583,-1.565 0.986,-1.147 1.409,-3.415 1.571,-5.54 0.062,-0.804 0.118,-1.621 0.118,-3.845 v -11.341 c 0,-1.303 -0.056,-1.738 -0.118,-2.337 -0.916,1.034 -2.225,2.985 -4.394,5.422 L 98.435,9.558 c -0.165,0.213 -0.487,0.487 -0.817,0.698 -0.436,0 -1.194,0.056 -1.62,0.056 -3.479,0 -9.771,0.157 -10.697,0.157 -0.108,-0.213 -0.211,-0.536 -0.211,-0.754 0,-0.113 0.103,-0.874 0.155,-1.04 0.817,-0.206 2.609,-0.481 4.069,-2.058 0.876,-0.971 2.394,-2.33 2.879,-3.415 0.165,-0.392 0.22,-0.978 0.22,-1.738 0,-2.81 -0.163,-6.779 -0.163,-10.568 v -11.029 c 0,-1.79 -0.16,-3.204 -0.323,-4.12 -1.145,-1.198 -2.874,-2.063 -5.7,-2.768 -0.108,-0.279 -0.218,-0.703 -0.218,-0.971 0,-0.169 0.053,-0.716 0.162,-0.76 h 1.032 c 1.086,0 3.579,0.161 5.21,0.161 2.392,0 4.011,-0.161 6.237,-0.161 h 3.237 c 0.212,0.044 0.267,0.705 0.267,0.915 0,0.219 -0.055,0.654 -0.155,0.867 -1.889,0.486 -4.643,0.928 -6.494,3.364 -0.376,0.816 -0.7,4.837 -0.7,6.737 0,1.732 -0.065,4.113 -0.065,7.323 0,4.286 0.065,8.025 0.114,9.919 0.324,-0.373 0.702,-0.859 0.977,-1.177 l 25.049,-28.173 c 0.274,-0.268 1.246,-0.323 1.521,-0.323 0.268,0 0.437,0 0.648,0.106 0.106,0.268 0.487,1.147 0.487,2.435 0,1.576 -0.057,3.216 -0.057,4.02 v 22.633 c 0,6.786 3.204,8.679 6.948,8.848 0.168,0.275 0.223,0.754 0.223,1.029 m 42.244,-30.984 c -0.166,0.486 -0.604,1.304 -1.85,1.304 -0.113,0 -0.268,-0.057 -0.374,-0.057 -3.265,-4.618 -6.842,-6.35 -10.918,-6.35 -5.632,0 -9.657,3.801 -10.954,7.166 -0.71,1.789 -1.684,5.696 -1.684,9.877 0,3.958 0.599,7.16 1.628,9.497 2.386,6.287 5.857,8.245 10.095,8.245 3.532,0 6.462,-2.013 8.68,-4.886 0.928,-1.248 1.9,-3.689 2.759,-6.568 0.225,-0.051 0.712,-0.157 1.204,-0.157 0.325,0 1.085,0.264 1.296,0.488 -0.048,0.591 -0.586,4.772 -0.586,6.081 0,1.62 0.431,4.281 0.431,5.315 -0.331,0.324 -1.415,0.543 -2.12,0.587 -0.81,-0.587 -1.084,-1.29 -1.843,-2.219 -3.048,2.175 -5.865,3.851 -12.046,3.851 -5.696,0 -10.208,-1.944 -13.623,-5.373 -3.738,-3.681 -5.807,-8.792 -5.807,-15.303 0,-6.943 2.929,-12.644 7.653,-16.226 2.991,-2.164 7.384,-3.628 12.643,-3.628 6.624,0 11.448,2.5 13.89,5.797 0.973,1.313 1.084,1.637 1.526,2.559 m 45.908,1.896 c 0,0.754 0,1.089 -0.063,1.575 -0.273,0.168 -0.379,0.168 -0.809,0.168 -0.386,0 -0.811,0 -1.202,-0.111 -1.838,-4.182 -4.499,-7.44 -5.965,-8.3 -0.81,-0.499 -2.056,-0.605 -4.075,-0.605 h -4.436 c -1.738,0 -3.105,0.161 -3.584,0.274 -0.815,0.162 -1.689,1.464 -2.063,2.337 -0.385,0.917 -0.604,0.917 -0.604,3.42 v 11.877 h 2.013 c 0.548,0 1.845,-0.106 3.301,-0.76 1.367,-0.604 1.909,-1.408 2.445,-2.28 0.499,-0.754 0.815,-3.738 0.922,-4.506 0.273,-0.155 0.978,-0.21 1.42,-0.21 0.424,0 0.698,0.055 1.079,0.272 0,1.471 -0.319,5.422 -0.319,7.604 0,2.71 0.374,6.449 0.536,8.394 -0.217,0.117 -0.536,0.224 -1.084,0.224 -0.379,0 -1.085,0 -1.408,-0.162 -0.162,-0.761 -0.76,-3.036 -0.874,-3.203 -0.808,-1.366 -2.228,-2.393 -3.687,-2.823 -0.974,-0.263 -2.394,-0.43 -3.142,-0.43 h -1.141 v 5.041 c 0,5.216 0.107,6.892 0.158,7.877 0.055,0.643 0.162,1.352 0.224,1.838 0.486,0.056 0.759,0.106 3.253,0.106 3.14,0 4.611,-0.05 5.096,-0.05 1.521,-0.118 2.661,-0.436 3.478,-1.09 2.062,-1.572 3.626,-4.057 5.208,-6.718 0.326,-0.118 0.868,-0.118 1.142,-0.118 0.324,0 0.38,0.118 0.816,0.323 0,3.323 -0.231,7.603 -0.336,8.955 -0.049,0.543 -0.156,0.71 -1.241,0.71 -0.443,0 -2.499,0.106 -4.667,0.106 -3.091,0 -4.349,-0.055 -9.073,-0.055 -2.543,0 -7.808,-0.051 -10.032,-0.051 -3.253,0 -6.026,0.106 -7.442,0.106 h -1.843 c -0.161,-0.21 -0.263,-0.647 -0.263,-0.86 0,-0.273 0.102,-0.883 0.263,-1.089 0.654,-0.219 3.209,-0.169 3.974,-0.599 0.749,-0.647 1.452,-0.922 1.945,-3.528 0.113,-1.14 0.162,-4.286 0.162,-6.779 v -11.179 c 0,-2.281 -0.049,-5.59 -0.112,-6.943 -0.099,-2.117 -0.859,-4.667 -1.183,-5.165 -0.492,-0.374 -2.719,-0.705 -4.886,-0.804 -0.163,-0.331 -0.274,-0.879 -0.274,-1.196 0,-0.323 0.111,-0.712 0.274,-0.984 h 1.788 c 1.738,0 8.145,0.161 9.609,0.161 1.352,0 3.962,-0.106 7.104,-0.106 1.739,0 6.835,-0.324 17.804,-0.324 0.436,0 0.922,-0.05 1.458,0.111 0.167,0.275 0.167,0.382 0.224,0.874 0.112,1.084 0.112,4.28 0.112,8.675 m 46.76,17.634 V 9.391 c 0,0.817 -0.311,1.027 -1.132,1.027 -1.627,0 -10.196,-0.21 -18.882,-0.21 -6.731,0 -12.319,0.104 -15.355,0.104 h -4.025 c -0.698,0 -0.916,-0.167 -0.916,-0.921 V -0.973 c 0.218,-0.167 0.592,-0.224 0.872,-0.224 0.218,0 0.979,0 1.19,0.119 2.443,4.923 4.724,7.589 7.596,9.059 1.627,0.151 4.829,0.213 5.701,0.213 0.051,-0.599 0.107,-2.499 0.164,-4.767 0.049,-3.913 0.049,-5.595 0.049,-14.819 0,-7.988 -0.049,-11.56 -0.162,-12.424 -0.213,-1.515 0.056,-2.668 -6.455,-2.943 -0.169,-0.373 -0.169,-0.803 -0.169,-1.233 0,-0.219 0,-0.661 0.063,-0.874 h 2.106 c 2.012,0 6.735,0.213 8.693,0.213 1.57,0 6.618,-0.162 9.921,-0.162 h 1.519 c 0.162,0.268 0.162,0.867 0.162,1.135 0,0.336 -0.049,0.71 -0.211,0.983 -0.599,0 -4.075,-0.104 -5.583,1.029 -0.169,0.599 -0.499,2.168 -0.499,4.076 -0.049,5.857 -0.111,8.076 -0.111,11.988 0,5.049 0.062,8.464 0.062,17.854 0.759,0 2.497,0.05 4.117,0 3.371,-0.923 5.004,-2.174 6.463,-4.125 0.915,-1.247 1.907,-3.359 2.873,-5.914 0.329,-0.107 0.604,-0.107 0.916,-0.107 0.225,0 0.928,0.107 1.033,0.213 m 47.696,-6.837 c 0,7.591 -3.353,13.392 -9.657,16.876 -3.36,1.852 -6.719,2.772 -10.301,2.772 -7.921,0 -15.088,-4.723 -18.297,-10.101 -2.063,-3.364 -3.14,-7.048 -3.14,-10.948 0,-6.245 3.035,-12.376 7.759,-15.902 3.582,-2.613 7.651,-3.907 12.375,-3.907 2.878,0 5.59,0.536 8.244,1.569 2.991,1.14 5.54,2.935 7.547,5.161 3.527,3.85 5.47,8.786 5.47,14.48 m -9.815,1.036 c 0,-8.194 -2.272,-15.424 -5.364,-17.967 -1.583,-1.308 -3.527,-1.956 -5.764,-1.956 -3.035,0 -5.689,1.198 -7.211,3.635 -2.055,3.146 -3.202,9.01 -3.202,14.112 0,7.547 1.945,13.461 5.434,16.34 1.845,1.514 3.726,2.106 5.634,2.106 2.941,0 5.757,-1.408 7.389,-3.739 2.058,-2.823 3.084,-6.892 3.084,-12.531 m 62.185,17.255 c 0,0.212 -0.049,0.592 -0.162,0.753 h -1.246 c -2.717,0 -4.444,-0.106 -9.335,-0.106 -1.682,0 -4.188,0.106 -4.773,0.106 h -1.408 c -0.176,-0.106 -0.225,-0.704 -0.225,-0.922 0,-0.273 0.049,-0.703 0.274,-0.927 0.873,-0.275 4.176,-0.636 5.583,-1.565 0.985,-1.147 1.422,-3.415 1.584,-5.54 0.049,-0.804 0.1,-1.621 0.1,-3.845 v -11.341 c 0,-1.303 -0.051,-1.738 -0.1,-2.337 -0.93,1.034 -2.225,2.985 -4.399,5.422 L 333.398,9.558 c -0.162,0.213 -0.485,0.487 -0.821,0.698 -0.43,0 -1.19,0.056 -1.62,0.056 -3.478,0 -9.771,0.157 -10.682,0.157 -0.118,-0.213 -0.224,-0.536 -0.224,-0.754 0,-0.113 0.106,-0.874 0.157,-1.04 0.816,-0.206 2.604,-0.481 4.069,-2.058 0.871,-0.971 2.391,-2.33 2.871,-3.415 0.174,-0.392 0.225,-0.978 0.225,-1.738 0,-2.81 -0.169,-6.779 -0.169,-10.568 v -11.029 c 0,-1.79 -0.148,-3.204 -0.316,-4.12 -1.141,-1.198 -2.874,-2.063 -5.702,-2.768 -0.1,-0.279 -0.212,-0.703 -0.212,-0.971 0,-0.169 0.05,-0.716 0.162,-0.76 h 1.035 c 1.084,0 3.576,0.161 5.202,0.161 2.393,0 4.014,-0.161 6.238,-0.161 h 3.265 c 0.212,0.044 0.261,0.705 0.261,0.915 0,0.219 -0.049,0.654 -0.161,0.867 -1.895,0.486 -4.662,0.928 -6.505,3.364 -0.386,0.816 -0.705,4.837 -0.705,6.737 0,1.732 -0.056,4.113 -0.056,7.323 0,4.286 0.056,8.025 0.106,9.919 0.33,-0.373 0.704,-0.859 0.979,-1.177 l 25.069,-28.173 c 0.268,-0.268 1.246,-0.323 1.52,-0.323 0.262,0 0.429,0 0.654,0.106 0.1,0.268 0.481,1.147 0.481,2.435 0,1.576 -0.056,3.216 -0.056,4.02 v 22.633 c 0,6.786 3.209,8.679 6.948,8.848 0.168,0.275 0.217,0.754 0.217,1.029"
             style="fill:#1d1d1b;fill-opacity:1;fill-rule:nonzero;stroke:none"
             id="path138"
             inkscape:connector-curvature="0" /></g><g
           id="g140"
           transform="translate(208.4839,70.7402)"><path
             d="m 0,0 c 0,0.217 -0.103,0.541 -0.267,0.698 h -1.571 c -1.682,0 -3.963,-0.106 -5.919,-0.106 -2.162,0 -4.609,0.106 -6.191,0.106 h -1.945 C -16.061,0.374 -16.117,0.274 -16.117,0 c 0,-0.225 0.056,-0.442 0.165,-0.717 0.225,0 4.181,-0.044 4.883,-1.029 0.598,-0.816 1.9,-2.809 2.118,-4.012 0.109,-0.543 0.433,-2.766 0.433,-5.965 0,-4.61 0,-7.701 -0.049,-9.327 -0.109,-3.054 -0.443,-5.434 -0.985,-7.218 -1.517,-4.728 -5.042,-7.058 -10.631,-7.058 -2.387,0 -4.446,0.485 -6.347,1.357 -3.53,1.734 -5.216,5.042 -5.265,6.837 l -0.275,16.27 -0.044,6.619 c 0,1.258 1.562,2.398 2.103,3.047 0.444,0.211 2.83,0.435 4.188,0.542 0.16,0.33 0.268,0.485 0.268,0.754 0,0.274 -0.159,0.547 -0.383,0.704 L -27.99,0.76 c -2.021,-0.062 -4.675,-0.113 -6.351,-0.113 -2.611,0 -4.621,0.051 -6.242,0.051 h -2.276 c -0.224,-0.157 -0.275,-0.481 -0.275,-0.754 0,-0.268 0.051,-0.486 0.216,-0.661 1.735,-0.213 2.872,-0.375 3.632,-0.529 0.926,-0.543 1.58,-1.464 1.901,-2.387 0.055,-0.717 0.158,-2.443 0.158,-5.863 v -13.03 c 0,-3.367 0.172,-5.742 0.548,-7.267 0.695,-2.823 2.223,-5.048 4.724,-6.668 2.656,-1.744 5.968,-2.61 9.928,-2.61 3.639,0 6.727,0.759 9.33,2.223 2.712,1.466 4.397,3.852 5.373,7.216 0.541,2.001 0.868,4.183 0.868,6.456 v 10.42 c 0,1.951 0.113,4.393 0.113,5.378 0.052,2.922 0.813,4.668 1.63,5.97 0.866,0.267 1.625,0.423 4.495,0.754 C -0.103,-0.442 0,-0.275 0,0 m 50.251,0.274 c 0,0.211 -0.055,0.373 -0.165,0.53 h -1.242 c -2.716,0 -3.914,-0.106 -8.79,-0.106 -1.689,0 -4.185,0.106 -4.77,0.106 H 33.86 C 33.7,0.698 33.648,0.316 33.648,0.1 c 0,-0.269 0.052,-0.375 0.268,-0.586 0.868,-0.275 4.18,-0.655 5.595,-1.577 0.973,-1.146 1.405,-3.426 1.57,-5.54 0.054,-0.804 0.103,-1.626 0.103,-3.851 v -16.115 c 0,-1.309 -0.049,-1.739 -0.103,-2.335 -0.924,1.026 -2.496,3.047 -4.614,5.539 L 15.735,-0.169 c -0.158,0.225 -0.482,0.485 -0.816,0.71 -0.427,0 -0.97,0.051 -1.403,0.051 -3.471,0 -6.515,0.168 -7.44,0.168 C 5.973,0.541 5.917,0.437 5.917,0.217 c 0,-0.117 0.056,-0.541 0.106,-0.703 0.82,-0.231 3.206,-0.499 4.188,-1.528 0.867,-0.971 2.162,-2.111 2.654,-3.202 0.158,-0.375 0.224,-0.967 0.224,-1.732 0,-2.823 -0.167,-7.97 -0.167,-11.778 v -11.56 c 0,-1.787 -0.165,-3.195 -0.33,-4.117 -1.138,-1.199 -2.874,-2.058 -5.7,-2.775 -0.108,-0.268 -0.211,-0.373 -0.211,-0.647 0,-0.169 0.052,-0.487 0.162,-0.529 h 1.025 c 1.088,0 3.586,0.149 5.221,0.149 2.371,0 3.466,-0.149 5.678,-0.149 h 3.275 c 0.211,0.042 0.255,0.478 0.255,0.697 0,0.211 -0.044,0.324 -0.159,0.542 -1.897,0.485 -4.658,0.928 -6.502,3.366 -0.383,0.815 -0.717,4.934 -0.717,6.834 0,1.734 -0.05,4.557 -0.05,7.753 0,4.286 0.05,10.207 0.116,12.1 0.317,-0.372 0.816,-0.963 1.187,-1.407 l 25.721,-30.117 c 0.268,-0.268 0.382,-0.311 0.655,-0.311 0.268,0 0.103,0 0.323,0.1 0.106,0.274 0.273,1.14 0.273,2.436 0,1.576 -0.06,3.204 -0.06,4.019 v 23.057 c 0,6.78 3.21,8.693 6.949,8.843 0.163,0.273 0.218,0.442 0.218,0.716 m 24.524,-37.931 c 0,0.268 -0.046,0.542 -0.162,0.754 -0.816,0.055 -3.034,0.273 -4.012,0.493 -0.867,1.028 -1.462,2.217 -1.851,4.175 -0.049,2.603 -0.1,8.518 -0.1,13.572 v 13.77 c 0,1.466 0.592,2.618 0.975,2.93 1.028,0.978 3.087,1.202 4.823,1.421 0.109,0.218 0.165,0.486 0.165,0.691 0,0.336 -0.165,0.549 -0.273,0.655 h -1.569 c -2.286,0 -5.54,-0.263 -7.384,-0.263 -1.137,0 -4.397,0.157 -6.776,0.219 h -1.199 c -0.16,-0.219 -0.275,-0.219 -0.275,-0.704 0,-0.225 0.056,-0.436 0.115,-0.71 2.656,-0.218 3.848,-0.487 4.231,-0.754 0.652,-0.499 1.573,-1.684 1.792,-4.624 0.049,-1.03 0.108,-3.802 0.159,-8.786 0.059,-2.705 0.115,-6.407 0.115,-9.547 0,-1.583 -0.115,-5.646 -0.166,-7.541 -0.108,-1.302 -0.383,-2.56 -0.765,-3.251 -0.646,-0.55 -1.297,-1.522 -5.257,-1.802 -0.109,-0.219 -0.168,-0.592 -0.168,-0.811 0,-0.435 0.116,-0.435 0.116,-0.703 h 0.912 c 2.176,0 5.547,0.268 8.36,0.268 0.816,0 4.396,-0.149 6.19,-0.149 h 1.786 c 0.172,0.26 0.218,0.478 0.218,0.697 m 47.518,37.806 c 0,0.225 -0.055,0.549 -0.273,0.611 h -1.845 c -1.301,0 -3.359,-0.113 -4.287,-0.113 -4.394,0 -5.965,0.275 -6.624,0.275 h -0.972 c -0.112,-0.275 -0.274,-0.437 -0.274,-0.705 0,-0.217 0.111,-0.386 0.111,-0.597 1.353,-0.162 2.543,-0.436 3.746,-0.816 0.64,-0.649 1.357,-1.958 1.357,-3.428 0,-0.53 -0.541,-3.085 -1.314,-4.935 l -8.73,-21.48 -10.719,27.187 c 0.159,1.29 0.867,2.55 1.78,3.036 0.918,0.099 2.047,0.436 3.524,0.436 0.1,0.211 0.211,0.529 0.211,0.754 0,0.218 -0.049,0.548 -0.273,0.592 H 96.34 c -1.658,0 -4.204,-0.206 -7.073,-0.206 -1.246,0 -3.689,0.106 -6.082,0.106 H 81.072 C 80.957,0.647 80.854,0.541 80.854,0.217 c 0,-0.323 0.059,-0.442 0.162,-0.659 1.518,-0.374 2.985,-0.966 4.562,-1.833 1.028,-1.527 3.253,-7.01 4.452,-9.877 l 4.487,-10.861 c 3.729,-9.016 5.966,-15.03 6.234,-16.058 0.274,-0.169 0,-0.318 0.486,-0.318 0.486,0 0.437,0.093 0.543,0.368 l 14.002,33.65 c 0.486,1.19 1.24,2.323 1.949,3.096 0.867,0.973 2.661,1.345 4.338,1.733 0.056,0.218 0.224,0.436 0.224,0.691 m 40.174,-29.619 c 0,0.761 0,1.092 -0.049,1.577 -0.275,0.169 -0.375,0.169 -0.816,0.169 -0.381,0 -0.33,0 -0.712,-0.118 -1.188,-3.958 -3.246,-6.899 -5.588,-8.301 -0.809,-0.487 -2.282,-0.591 -4.605,-0.591 h -6.076 c -1.894,0.055 -3.091,0.162 -3.589,0.273 -0.811,0.15 -1.683,1.465 -2.051,2.33 -0.393,0.923 -0.604,1.246 -0.604,3.746 v 12.369 h 1.739 c 1.739,0 3.147,-0.118 4.604,-0.765 1.371,-0.599 2.393,-1.452 2.929,-2.325 0.499,-0.766 0.661,-3.751 0.772,-4.505 0.264,-0.168 0.43,-0.212 0.861,-0.212 0.429,0 0.487,0.044 0.873,0.267 0,1.452 -0.323,5.422 -0.323,7.591 0,2.71 0.378,6.032 0.534,7.977 -0.211,0.111 -0.324,0.217 -0.86,0.217 -0.386,0 -0.535,0 -0.879,-0.15 -0.155,-0.766 -0.591,-3.048 -0.691,-3.216 -0.823,-1.351 -2.724,-2.442 -4.181,-2.872 -0.985,-0.268 -2.392,-0.442 -4.455,-0.442 h -0.874 v 5.327 c 0,5.21 0.114,7.322 0.162,8.308 0.063,0.647 0.169,1.345 0.225,1.831 0.487,0.055 2.062,0.113 4.562,0.113 3.141,0 5.476,-0.058 5.969,-0.058 1.521,-0.099 2.655,-0.429 3.472,-1.084 2.654,-2.055 3.357,-3.426 4.828,-6.728 0.324,-0.1 0.375,-0.1 0.649,-0.1 0.325,0 0.38,0.1 0.81,0.318 0,3.308 -0.213,7.053 -0.324,8.418 -0.056,0.543 -0.161,0.698 -1.246,0.698 -0.437,0 -2.499,0.106 -4.661,0.106 -3.103,0 -4.349,-0.051 -9.068,-0.051 -2.548,0 -7.047,-0.055 -9.278,-0.055 -3.253,0 -3.97,0.106 -5.378,0.106 h -1.856 c -0.169,-0.213 -0.276,-0.424 -0.276,-0.642 0,-0.281 0.107,-0.542 0.276,-0.773 0.654,-0.213 3.22,-0.155 3.981,-0.585 0.749,-0.661 1.459,-0.816 1.951,-3.422 0.107,-1.14 0.167,-4.835 0.167,-7.329 v -11.165 c 0,-2.282 -0.06,-6.032 -0.111,-7.38 -0.113,-2.125 -0.872,-4.784 -1.197,-5.271 -0.492,-0.387 -2.717,-0.703 -4.898,-0.81 -0.169,-0.33 -0.286,-0.548 -0.286,-0.872 0,-0.325 0.117,-0.492 0.286,-0.761 h 1.794 c 1.753,0 6.095,0.163 7.554,0.163 1.357,0 3.202,-0.107 6.343,-0.107 1.745,0 6.835,-0.33 17.81,-0.33 0.431,0 0.916,-0.062 1.457,0.113 0.162,0.268 0.162,0.379 0.213,0.86 0.111,1.085 0.111,3.751 0.111,8.143 m 45.529,-8.237 c 0,0.261 -0.1,0.592 -0.275,0.804 -0.537,0 -2.761,0.099 -3.577,0.716 -0.269,0.318 -0.703,0.967 -0.923,1.346 -0.703,2.499 -1.464,4.724 -2.279,6.779 -1.136,2.719 -2.717,5.274 -4.014,6.462 -0.486,0.431 -2.013,1.148 -3.914,1.79 -0.86,0.331 -1.57,0.604 -2.218,0.872 0.817,0.157 1.191,0.212 2.218,0.324 3.528,0.429 4.731,1.19 5.759,2.007 2.169,1.62 3.577,4.064 3.577,7.004 0,4.387 -2.816,8.574 -6.781,9.82 -1.309,0.375 -3.64,0.587 -6.511,0.587 -4.069,0 -7.11,-0.367 -9.821,-0.367 -0.81,0 -3.478,0.104 -5.365,0.104 -0.816,0 -2.885,0.106 -3.209,0.106 -0.157,-0.373 -0.268,-0.498 -0.268,-0.703 0,-0.219 0.049,-0.536 0.111,-0.76 0.915,-0.114 2.599,-0.325 3.465,-0.486 1.309,-0.973 1.744,-1.746 2.28,-2.941 0.269,-1.727 0.332,-6.619 0.332,-14.272 0,-5.526 0.054,-12.481 -0.218,-14.537 -0.162,-1.351 -0.65,-2.979 -2.232,-3.627 -0.698,-0.125 -2.007,-0.33 -3.091,-0.392 -0.162,-0.262 -0.275,-0.48 -0.275,-0.754 0,-0.169 0.113,-0.38 0.22,-0.648 0.761,0 7.01,0.161 8.737,0.161 3.476,0 4.342,-0.161 7.433,-0.161 0.111,0.217 0.224,0.379 0.224,0.597 0,0.381 -0.113,0.599 -0.224,0.805 -1.077,0.112 -2.444,0.441 -3.04,0.543 -1.348,0.659 -2.325,1.963 -2.325,3.863 l -0.056,13.559 c 0.436,0.062 2,0.062 2.436,0.062 1.464,0 2.942,-0.118 4.343,-0.766 2.064,-0.916 4.02,-2.386 5.316,-4.393 1.738,-2.712 2.879,-7.87 3.427,-11.828 0.156,-1.147 0.592,-2.118 1.621,-2.225 0.43,-0.056 1.089,-0.168 3.152,-0.168 h 5.64 c 0.225,0.219 0.325,0.43 0.325,0.717 m -11.392,28.752 c 0,-3.471 -2.773,-7.378 -5.963,-8.088 -1.315,-0.274 -3.216,-0.436 -5.652,-0.436 -0.648,0 -2.492,0 -3.304,0.118 l -0.06,4.767 v 10.256 c 0,0.717 0.167,1.092 0.372,1.246 0.224,0.162 2.449,0.331 3.801,0.331 5.098,0 7.44,-0.485 9.285,-3.146 1.036,-1.464 1.521,-3.155 1.521,-5.048 m 48.015,-18.726 c 0,4.343 -1.945,7.323 -6.134,9.547 -1.133,0.655 -3.14,1.364 -6.012,2.181 -3.315,0.916 -6.083,2 -7.872,2.984 -1.188,0.643 -3.209,2.438 -3.209,5.907 0,3.473 3.534,6.345 7.652,6.345 3.26,0 5.871,-1.621 7.441,-3.783 1.359,-1.907 1.845,-2.778 3.359,-6.187 0.169,-0.057 0.379,-0.118 0.541,-0.118 0.493,0 0.923,0.274 1.198,0.541 -0.162,1.365 -0.43,3.265 -0.43,4.893 0,1.401 0.33,3.253 0.492,4.23 -0.437,0.655 -0.934,0.761 -1.632,0.761 -0.761,-0.492 -1.471,-1.241 -2.12,-1.958 -3.577,2.879 -6.504,3.366 -9.221,3.366 -6.674,0 -11.449,-4.455 -11.449,-10.362 0,-2.014 0.705,-3.965 2.002,-5.97 1.195,-1.676 2.942,-2.985 5.272,-3.965 1.57,-0.64 8.624,-2.772 9.595,-3.146 4.344,-1.689 5.977,-3.141 5.977,-6.992 0,-1.907 -0.817,-3.589 -2.394,-5.484 -1.401,-1.739 -3.632,-2.555 -6.013,-2.555 -2.562,0 -6.954,1.085 -9.123,4.013 -1.309,1.677 -3.147,5.209 -3.688,7.334 -0.382,0.102 -0.382,0.102 -0.761,0.102 -0.324,0 -0.71,-0.102 -1.034,-0.319 0,-0.71 0.225,-4.282 0.225,-5.371 0,-2.655 -0.488,-3.958 -0.599,-4.841 0.151,-0.543 1.084,-1.085 1.745,-1.085 1.127,0.983 2.318,1.744 2.71,1.744 0.318,0 0.805,-0.162 1.29,-0.492 3.527,-2.287 6.462,-2.71 9.073,-2.71 7.639,0 13.119,3.851 13.119,11.39 m 26.812,-9.976 c 0,0.268 -0.062,0.542 -0.161,0.754 -0.81,0.055 -3.036,0.273 -4.025,0.493 -0.861,1.028 -1.459,2.217 -1.832,4.175 -0.063,2.603 -0.113,8.518 -0.113,13.572 v 13.77 c 0,1.466 0.599,2.618 0.971,2.93 1.035,0.978 3.098,1.202 4.825,1.421 0.112,0.218 0.174,0.486 0.174,0.691 0,0.336 -0.174,0.549 -0.275,0.655 h -1.571 c -2.279,0 -5.532,-0.263 -7.389,-0.263 -1.135,0 -4.388,0.157 -6.781,0.219 h -1.196 c -0.156,-0.219 -0.261,-0.219 -0.261,-0.704 0,-0.225 0.056,-0.436 0.105,-0.71 2.661,-0.218 3.858,-0.487 4.231,-0.754 0.649,-0.499 1.576,-1.684 1.796,-4.624 0.056,-1.03 0.099,-3.802 0.161,-8.786 0.049,-2.705 0.1,-6.407 0.1,-9.547 0,-1.583 -0.1,-5.646 -0.162,-7.541 -0.099,-1.302 -0.374,-2.56 -0.748,-3.251 -0.655,-0.55 -1.309,-1.522 -5.272,-1.802 -0.106,-0.219 -0.155,-0.592 -0.155,-0.811 0,-0.435 0.093,-0.435 0.093,-0.703 h 0.935 c 2.174,0 5.534,0.268 8.357,0.268 0.815,0 4.392,-0.149 6.186,-0.149 h 1.784 c 0.161,0.26 0.223,0.478 0.223,0.697 m 45.092,26.795 v 10.538 c 0,0.809 -0.323,1.022 -1.135,1.022 -1.633,0 -9.123,-0.213 -17.809,-0.213 -6.724,0 -11.23,0.107 -14.271,0.107 h -4.012 c -0.698,0 -0.921,-0.155 -0.921,-0.916 v -9.822 c 0.223,-0.168 0.385,-0.217 0.647,-0.217 0.224,0 0.436,0 0.654,0.099 2.114,4.731 3.202,7.216 6.836,9.068 1.633,0.167 7.321,0.211 8.201,0.211 0.049,-0.585 0.105,-2.486 0.156,-4.773 0.055,-3.902 0.055,-6.013 0.055,-15.25 0,-7.969 -0.055,-12.094 -0.162,-12.961 -0.213,-1.526 0.056,-2.661 -6.455,-2.934 -0.162,-0.374 -0.162,-0.486 -0.162,-0.922 0,-0.218 0,-0.431 0.049,-0.648 h 2.12 c 2.005,0 4.661,0.217 6.617,0.217 1.576,0 4.562,-0.168 7.863,-0.168 h 1.522 c 0.168,0.275 0.168,0.548 0.168,0.811 0,0.336 -0.057,0.498 -0.219,0.765 -0.597,0 -4.074,-0.111 -5.589,1.036 -0.169,0.592 -0.492,2.162 -0.492,4.056 -0.044,5.863 -0.113,8.637 -0.113,12.55 0,5.042 0.069,8.892 0.069,18.276 0.754,0 4.775,0.058 6.4,0 3.352,-0.915 4.661,-2.162 6.125,-4.118 1.303,-1.738 1.633,-3.315 2.443,-5.914 0.331,-0.118 0.486,-0.118 0.816,-0.118 0.213,0 0.486,0.118 0.599,0.218 m 43.844,11.178 c 0,0.331 -0.225,0.444 -0.329,0.65 -2.226,0 -5.149,-0.162 -6.3,-0.162 -2.761,0 -6.12,0.224 -7.591,0.224 -0.161,-0.33 -0.217,-0.381 -0.217,-0.654 0,-0.274 0.056,-0.48 0.105,-0.649 1.583,-0.317 3.851,-0.71 4.288,-1.471 0.38,-0.692 0.497,-1.239 0.497,-2.106 0,-0.648 -0.049,-1.302 -0.335,-2.012 -0.486,-1.346 -1.522,-3.47 -2.981,-6.462 -2.504,-5.035 -4.068,-8.182 -4.947,-9.428 -1.401,2.374 -4.548,8.667 -5.308,10.3 l -3.041,6.624 c -0.113,0.206 -0.219,0.978 -0.219,1.466 0,0.703 0.106,1.195 0.219,1.401 0.493,0.978 2.173,1.091 4.456,1.371 0.099,0.268 0.155,0.592 0.155,0.809 0,0.375 -0.155,0.268 -0.324,0.543 h -0.972 c -3.639,0 -2.555,-0.168 -8.799,-0.168 -2.654,0 -5.858,0.168 -6.287,0.168 -0.219,-0.386 -0.33,-0.444 -0.33,-0.816 0,-0.219 0.062,-0.386 0.224,-0.661 3.626,-0.853 4.71,-1.514 5.096,-2.218 l 9.497,-18.607 c 0.923,-1.745 1.464,-3.091 1.74,-4.069 0.374,-1.521 0.429,-3.745 0.429,-6.506 0,-2.349 -0.811,-3.59 -1.738,-4.194 -0.382,-0.217 -3.099,-0.592 -4.345,-0.698 -0.211,-0.38 -0.272,-0.486 -0.272,-0.761 0,-0.273 0.118,-0.435 0.168,-0.654 2.772,0 5.651,0.07 7.271,0.07 1.141,0 2.879,-0.07 6.081,-0.119 1.846,-0.05 3.253,-0.113 4.227,-0.113 0.111,0.232 0.286,0.437 0.286,0.71 0,0.263 -0.068,0.43 -0.224,0.698 -1.746,0.219 -4.175,0.548 -4.723,1.091 -0.874,0.93 -1.297,1.346 -1.408,3.471 l -0.437,8.151 c -0.062,0.586 0.161,1.127 0.212,1.289 0.167,0.606 0.38,1.084 0.592,1.521 l 8.368,16.551 c 0.749,1.409 2.392,2.986 3.466,3.633 0.765,0.486 2.455,0.817 3.525,1.091 0.12,0.274 0.225,0.48 0.225,0.696"
             style="fill:#1d1d1b;fill-opacity:1;fill-rule:nonzero;stroke:none"
             id="path142"
             inkscape:connector-curvature="0" /></g></g></g></g></svg>