<?xml version="1.0" encoding="UTF-8" standalone="no"?>
<!-- Created with Inkscape (http://www.inkscape.org/) -->

<svg
   xmlns:dc="http://purl.org/dc/elements/1.1/"
   xmlns:cc="http://creativecommons.org/ns#"
   xmlns:rdf="http://www.w3.org/1999/02/22-rdf-syntax-ns#"
   xmlns:svg="http://www.w3.org/2000/svg"
   xmlns="http://www.w3.org/2000/svg"
   xmlns:sodipodi="http://sodipodi.sourceforge.net/DTD/sodipodi-0.dtd"
   xmlns:inkscape="http://www.inkscape.org/namespaces/inkscape"
   version="1.1"
   id="svg2"
   xml:space="preserve"
   width="682.66669"
   height="682.66669"
   viewBox="0 0 682.66669 682.66669"
   sodipodi:docname="videogame.svg"
   inkscape:version="0.92.2 (5c3e80d, 2017-08-06)"><metadata
     id="metadata8"><rdf:RDF><cc:Work
         rdf:about=""><dc:format>image/svg+xml</dc:format><dc:type
           rdf:resource="http://purl.org/dc/dcmitype/StillImage" /><dc:title /></cc:Work></rdf:RDF></metadata><defs
     id="defs6"><clipPath
       clipPathUnits="userSpaceOnUse"
       id="clipPath20"><path
         d="M 0,512 H 512 V 0 H 0 Z"
         id="path18"
         inkscape:connector-curvature="0" /></clipPath><clipPath
       clipPathUnits="userSpaceOnUse"
       id="clipPath28"><path
         d="M 91.7447,420.255 H 420.255 V 91.7447 H 91.7447 Z"
         id="path26"
         inkscape:connector-curvature="0" /></clipPath></defs><sodipodi:namedview
     pagecolor="#ffffff"
     bordercolor="#666666"
     borderopacity="1"
     objecttolerance="10"
     gridtolerance="10"
     guidetolerance="10"
     inkscape:pageopacity="0"
     inkscape:pageshadow="2"
     inkscape:window-width="3200"
     inkscape:window-height="1644"
     id="namedview4"
     showgrid="false"
     inkscape:zoom="0.34570311"
     inkscape:cx="-350.01132"
     inkscape:cy="341.33334"
     inkscape:window-x="-16"
     inkscape:window-y="-16"
     inkscape:window-maximized="1"
     inkscape:current-layer="g10" /><g
     id="g10"
     inkscape:groupmode="layer"
     inkscape:label="VideoGame"
     transform="matrix(1.3333333,0,0,-1.3333333,0,682.66667)"><g
       id="g14"><g
         id="g16"
         clip-path="url(#clipPath20)"><g
           id="g22"><g
             id="g24" /><g
             id="g72"><g
               clip-path="url(#clipPath28)"
               id="g70"
               style="opacity:0.80000299"><g
                 transform="translate(420.2549,255.9995)"
                 id="g32"><path
                   d="m 0,0 c 0,-90.715 -73.539,-164.254 -164.254,-164.254 -90.717,0 -164.256,73.539 -164.256,164.254 0,90.716 73.539,164.256 164.256,164.256 C -73.539,164.256 0,90.716 0,0"
                   style="fill:#ecfffa;fill-opacity:1;fill-rule:nonzero;stroke:none"
                   id="path30"
                   inkscape:connector-curvature="0" /></g><g
                 transform="translate(240.9619,99.3262)"
                 id="g36"><path
                   d="m 0,0 -1.404,-0.296 c 0.529,0.201 1.062,0.397 1.589,0.604 z m 159.315,235.243 c -26.851,49.202 -78.137,83.144 -137.55,85.538 L 7.911,320.766 c -25.472,-1.088 -49.441,-7.971 -70.62,-19.373 h 34.507 28.926 c 3.463,0 6.297,-4.396 6.297,-9.769 0,-5.372 -2.834,-9.768 -6.297,-9.768 h -28.926 -47.422 c -3.463,0 -6.297,-4.396 -6.297,-9.768 0,-5.373 2.834,-9.768 6.297,-9.768 h 47.422 3.739 c 3.463,0 6.296,-4.396 6.296,-9.768 0,-5.373 -2.833,-9.768 -6.296,-9.768 h -3.739 -68.674 -21.252 c -3.463,0 -6.297,-4.397 -6.297,-9.769 0,-5.372 2.834,-9.768 6.297,-9.768 h 21.252 68.674 50.965 c 1.423,0 2.733,-0.749 3.791,-1.996 l 0.242,-15.255 c -1.095,-1.424 -2.502,-2.286 -4.033,-2.286 h -50.965 -13.577 c -3.464,0 -6.297,-4.395 -6.297,-9.768 0,-5.372 2.833,-9.768 6.297,-9.768 h 13.577 34.436 c 3.463,0 6.297,-4.396 6.297,-9.768 0,-5.373 -2.834,-9.768 -6.297,-9.768 h -34.436 -43.487 c -3.463,0 -6.297,-4.396 -6.297,-9.769 0,-5.372 2.834,-9.767 6.297,-9.767 h 43.487 9.642 c 3.463,0 6.297,-4.397 6.297,-9.769 0,-5.373 -2.834,-9.769 -6.297,-9.769 h -9.642 -68.674 c -3.463,0 -6.297,-4.395 -6.297,-9.768 0,-5.372 2.834,-9.768 6.297,-9.768 h 68.674 28.926 c 3.463,0 6.297,-4.395 6.297,-9.768 0,-5.372 -2.834,-9.769 -6.297,-9.769 h -28.926 -47.422 c -3.463,0 -6.297,-4.394 -6.297,-9.767 0,-5.373 2.834,-9.769 6.297,-9.769 h 47.422 9.642 c 3.463,0 6.297,-4.395 6.297,-9.767 0,-5.374 -2.834,-9.769 -6.297,-9.769 h -9.642 -68.674 -10.724 c 6.322,-7.09 13.244,-13.631 20.695,-19.537 h 58.703 28.926 c 3.463,0 6.297,-4.395 6.297,-9.768 0,-5.373 -2.834,-9.768 -6.297,-9.768 h -28.926 -27.393 c 21.397,-10.207 45.346,-15.927 70.634,-15.927 66.107,0 123.085,39.06 149.137,95.355 z"
                   style="fill:#d9f9ee;fill-opacity:1;fill-rule:nonzero;stroke:none"
                   id="path34"
                   inkscape:connector-curvature="0" /></g><g
                 transform="translate(256.0005,420.2554)"
                 id="g40"><path
                   d="m 0,0 c -14.288,0 -28.149,-1.828 -41.365,-5.256 -0.441,-1.324 -0.695,-2.82 -0.695,-4.406 0,-5.314 2.803,-9.662 6.228,-9.662 h 67.928 28.612 c 3.426,0 6.229,-4.348 6.229,-9.662 0,-5.315 -2.803,-9.662 -6.229,-9.662 H 32.096 -14.811 c -3.425,0 -6.228,-4.348 -6.228,-9.663 0,-5.314 2.803,-9.662 6.228,-9.662 h 46.907 3.698 c 3.426,0 6.229,-4.348 6.229,-9.661 0,-5.315 -2.803,-9.663 -6.229,-9.663 h -3.698 -67.928 -21.02 c -3.426,0 -6.229,-4.348 -6.229,-9.662 0,-5.314 2.803,-9.662 6.229,-9.662 h 21.02 67.928 50.411 c 3.426,0 6.229,-4.348 6.229,-9.662 0,-5.314 -2.803,-9.662 -6.229,-9.662 H 32.096 18.667 c -3.426,0 -6.229,-4.348 -6.229,-9.662 0,-5.314 2.803,-9.662 6.229,-9.662 h 13.429 34.062 c 3.425,0 6.228,-4.348 6.228,-9.662 0,-5.314 -2.803,-9.662 -6.228,-9.662 H 32.096 -10.918 c -3.426,0 -6.228,-4.348 -6.228,-9.662 0,-5.315 2.802,-9.662 6.228,-9.662 h 43.014 9.537 c 3.426,0 6.229,-4.348 6.229,-9.663 0,-5.314 -2.803,-9.662 -6.229,-9.662 h -9.537 -67.928 c -3.425,0 -6.228,-4.347 -6.228,-9.662 0,-5.314 2.803,-9.662 6.228,-9.662 h 67.928 28.612 c 3.426,0 6.229,-4.348 6.229,-9.662 0,-5.314 -2.803,-9.662 -6.229,-9.662 H 32.096 -14.811 c -3.425,0 -6.228,-4.348 -6.228,-9.662 0,-5.314 2.803,-9.662 6.228,-9.662 h 46.907 9.537 c 3.426,0 6.229,-4.348 6.229,-9.662 0,-5.314 -2.803,-9.662 -6.229,-9.662 h -9.537 -67.928 -25.691 c -3.426,0 -6.229,-4.348 -6.229,-9.662 0,-5.314 2.803,-9.663 6.229,-9.663 h 25.691 67.928 28.612 c 3.426,0 6.229,-4.347 6.229,-9.662 0,-5.313 -2.803,-9.661 -6.229,-9.661 H 32.096 -29.603 c -3.426,0 -6.229,-4.349 -6.229,-9.662 0,-2.277 0.518,-4.375 1.376,-6.031 11.112,-2.372 22.636,-3.631 34.456,-3.631 90.715,0 164.254,73.539 164.254,164.254 C 164.254,-73.54 90.715,0 0,0"
                   style="fill:#cdf9ea;fill-opacity:1;fill-rule:nonzero;stroke:none"
                   id="path38"
                   inkscape:connector-curvature="0" /></g><g
                 transform="translate(391.7598,167.8174)"
                 id="g44"><path
                   d="m 0,0 h -47.422 c -3.464,0 -6.298,-4.395 -6.298,-9.768 0,-5.373 2.834,-9.768 6.298,-9.768 h 35.663 C -6.43,-13.406 -1.548,-6.877 2.837,0 Z"
                   style="fill:#ecfffa;fill-opacity:1;fill-rule:nonzero;stroke:none"
                   id="path42"
                   inkscape:connector-curvature="0" /></g><g
                 transform="translate(360.5156,382.7192)"
                 id="g48"><path
                   d="M 0,0 C -0.423,0.349 -0.854,0.687 -1.28,1.032 -1.941,0.688 -2.607,0.353 -3.263,0 Z"
                   style="fill:#ecfffa;fill-opacity:1;fill-rule:nonzero;stroke:none"
                   id="path46"
                   inkscape:connector-curvature="0" /></g><g
                 transform="translate(338.04,353.4141)"
                 id="g52"><path
                   d="M 0,0 C 0,-5.373 2.834,-9.768 6.298,-9.768 H 53.72 56.892 C 52.547,-2.895 47.71,3.635 42.424,9.768 H 6.298 C 2.834,9.768 0,5.373 0,0"
                   style="fill:#ecfffa;fill-opacity:1;fill-rule:nonzero;stroke:none"
                   id="path50"
                   inkscape:connector-curvature="0" /></g><g
                 transform="translate(301.834,304.5732)"
                 id="g56"><path
                   d="m 0,0 h 21.252 68.674 21.191 C 108.173,9.524 104.38,18.675 99.836,27.372 99.254,22.917 96.702,19.537 93.665,19.537 H 89.926 21.252 0 c -3.464,0 -6.297,-4.397 -6.297,-9.769 C -6.297,4.396 -3.464,0 0,0"
                   style="fill:#ecfffa;fill-opacity:1;fill-rule:nonzero;stroke:none"
                   id="path54"
                   inkscape:connector-curvature="0" /></g><g
                 transform="translate(378.1826,285.0366)"
                 id="g60"><path
                   d="m 0,0 c -3.464,0 -6.297,-4.396 -6.297,-9.768 0,-5.373 2.833,-9.768 6.297,-9.768 H 13.577 41.793 C 41.415,-12.912 40.653,-6.391 39.514,0 H 13.577 Z"
                   style="fill:#ecfffa;fill-opacity:1;fill-rule:nonzero;stroke:none"
                   id="path58"
                   inkscape:connector-curvature="0" /></g><g
                 transform="translate(348.2734,245.9639)"
                 id="g64"><path
                   d="m 0,0 c -3.464,0 -6.298,-4.396 -6.298,-9.769 0,-5.372 2.834,-9.767 6.298,-9.767 h 43.486 9.643 c 3.463,0 6.296,-4.397 6.296,-9.769 0,-5.373 -2.833,-9.768 -6.296,-9.768 h -9.643 -68.673 c -3.464,0 -6.297,-4.396 -6.297,-9.769 0,-5.372 2.833,-9.767 6.297,-9.767 h 68.673 13.496 c 8.3,18.015 13.43,37.788 14.686,58.609 L 43.486,0 Z"
                   style="fill:#ecfffa;fill-opacity:1;fill-rule:nonzero;stroke:none"
                   id="path62"
                   inkscape:connector-curvature="0" /></g><g
                 transform="translate(323.0859,128.7451)"
                 id="g68"><path
                   d="M 0,0 C -4.113,0 -6.155,-4.993 -3.223,-7.878 0.572,-11.61 4.556,-15.148 8.698,-18.5 18.702,-13.288 28.102,-7.079 36.766,0 Z"
                   style="fill:#ecfffa;fill-opacity:1;fill-rule:nonzero;stroke:none"
                   id="path66"
                   inkscape:connector-curvature="0" /></g></g></g></g><g
           id="g74"
           transform="translate(326.6172,409.8408)"><path
             d="m 0,0 h -3.698 c -1.381,0 -2.5,1.119 -2.5,2.5 0,1.381 1.119,2.5 2.5,2.5 H 0 C 1.381,5 2.5,3.881 2.5,2.5 2.5,1.119 1.381,0 0,0"
             style="fill:#666666;fill-opacity:1;fill-rule:nonzero;stroke:none"
             id="path76"
             inkscape:connector-curvature="0" /></g><g
           id="g78"
           transform="translate(314.3057,409.8408)"><path
             d="m 0,0 h -36.352 c -1.38,0 -2.5,1.119 -2.5,2.5 0,1.381 1.12,2.5 2.5,2.5 H 0 C 1.381,5 2.5,3.881 2.5,2.5 2.5,1.119 1.381,0 0,0"
             style="fill:#666666;fill-opacity:1;fill-rule:nonzero;stroke:none"
             id="path80"
             inkscape:connector-curvature="0" /></g><g
           id="g82"
           transform="translate(122.8145,216.7432)"><path
             d="m 0,0 h -3.699 c -1.381,0 -2.5,1.119 -2.5,2.5 0,1.381 1.119,2.5 2.5,2.5 H 0 C 1.381,5 2.5,3.881 2.5,2.5 2.5,1.119 1.381,0 0,0"
             style="fill:#666666;fill-opacity:1;fill-rule:nonzero;stroke:none"
             id="path84"
             inkscape:connector-curvature="0" /></g><g
           id="g86"
           transform="translate(167.7793,216.7432)"><path
             d="m 0,0 h -36.352 c -1.38,0 -2.5,1.119 -2.5,2.5 0,1.381 1.12,2.5 2.5,2.5 H 0 C 1.381,5 2.5,3.881 2.5,2.5 2.5,1.119 1.381,0 0,0"
             style="fill:#666666;fill-opacity:1;fill-rule:nonzero;stroke:none"
             id="path88"
             inkscape:connector-curvature="0" /></g><g
           id="g90"
           transform="translate(122.8145,338.208)"><path
             d="m 0,0 h -3.699 c -1.381,0 -2.5,1.119 -2.5,2.5 0,1.381 1.119,2.5 2.5,2.5 H 0 C 1.381,5 2.5,3.881 2.5,2.5 2.5,1.119 1.381,0 0,0"
             style="fill:#666666;fill-opacity:1;fill-rule:nonzero;stroke:none"
             id="path92"
             inkscape:connector-curvature="0" /></g><g
           id="g94"
           transform="translate(167.7793,338.208)"><path
             d="m 0,0 h -36.352 c -1.38,0 -2.5,1.119 -2.5,2.5 0,1.381 1.12,2.5 2.5,2.5 H 0 C 1.381,5 2.5,3.881 2.5,2.5 2.5,1.119 1.381,0 0,0"
             style="fill:#666666;fill-opacity:1;fill-rule:nonzero;stroke:none"
             id="path96"
             inkscape:connector-curvature="0" /></g><g
           id="g98"
           transform="translate(326.6172,85.1563)"><path
             d="m 0,0 h -3.698 c -1.381,0 -2.5,1.119 -2.5,2.5 0,1.381 1.119,2.5 2.5,2.5 H 0 C 1.381,5 2.5,3.881 2.5,2.5 2.5,1.119 1.381,0 0,0"
             style="fill:#666666;fill-opacity:1;fill-rule:nonzero;stroke:none"
             id="path100"
             inkscape:connector-curvature="0" /></g><g
           id="g102"
           transform="translate(314.3057,85.1563)"><path
             d="m 0,0 h -36.352 c -1.38,0 -2.5,1.119 -2.5,2.5 0,1.381 1.12,2.5 2.5,2.5 H 0 C 1.381,5 2.5,3.881 2.5,2.5 2.5,1.119 1.381,0 0,0"
             style="fill:#666666;fill-opacity:1;fill-rule:nonzero;stroke:none"
             id="path104"
             inkscape:connector-curvature="0" /></g><g
           id="g106"
           transform="translate(356.3506,340.3491)"><path
             d="m 0,0 c -3.773,0 -6.843,-3.07 -6.843,-6.843 0,-3.774 3.07,-6.844 6.843,-6.844 3.773,0 6.844,3.07 6.844,6.844 C 6.844,-3.07 3.773,0 0,0 m 0,-18.687 c -6.53,0 -11.843,5.313 -11.843,11.844 C -11.843,-0.313 -6.53,5 0,5 6.53,5 11.844,-0.313 11.844,-6.843 11.844,-13.374 6.53,-18.687 0,-18.687"
             style="fill:#666666;fill-opacity:1;fill-rule:nonzero;stroke:none"
             id="path108"
             inkscape:connector-curvature="0" /></g><g
           id="g110"
           transform="translate(356.3506,218.3008)"><path
             d="m 0,0 c -3.773,0 -6.843,-3.07 -6.843,-6.844 0,-3.773 3.07,-6.844 6.843,-6.844 3.773,0 6.844,3.071 6.844,6.844 C 6.844,-3.07 3.773,0 0,0 m 0,-18.687 c -6.53,0 -11.843,5.313 -11.843,11.843 C -11.843,-0.313 -6.53,5 0,5 6.53,5 11.844,-0.313 11.844,-6.844 11.844,-13.374 6.53,-18.687 0,-18.687"
             style="fill:#666666;fill-opacity:1;fill-rule:nonzero;stroke:none"
             id="path112"
             inkscape:connector-curvature="0" /></g><g
           id="g114"
           transform="translate(171.0396,403.6118)"><path
             d="m 0,0 c -3.773,0 -6.843,-3.07 -6.843,-6.843 0,-3.774 3.07,-6.844 6.843,-6.844 3.773,0 6.844,3.07 6.844,6.844 C 6.844,-3.07 3.773,0 0,0 m 0,-18.687 c -6.53,0 -11.843,5.313 -11.843,11.844 C -11.843,-0.313 -6.53,5 0,5 6.531,5 11.844,-0.313 11.844,-6.843 11.844,-13.374 6.531,-18.687 0,-18.687"
             style="fill:#666666;fill-opacity:1;fill-rule:nonzero;stroke:none"
             id="path116"
             inkscape:connector-curvature="0" /></g><g
           id="g118"
           transform="translate(193.8145,113.9658)"><path
             d="m 0,0 c -3.773,0 -6.844,-3.07 -6.844,-6.844 0,-3.773 3.071,-6.844 6.844,-6.844 3.773,0 6.843,3.071 6.843,6.844 C 6.843,-3.07 3.773,0 0,0 m 0,-18.687 c -6.531,0 -11.844,5.313 -11.844,11.843 C -11.844,-0.313 -6.531,5 0,5 6.53,5 11.843,-0.313 11.843,-6.844 11.843,-13.374 6.53,-18.687 0,-18.687"
             style="fill:#666666;fill-opacity:1;fill-rule:nonzero;stroke:none"
             id="path120"
             inkscape:connector-curvature="0" /></g><g
           id="g122"
           transform="translate(378.3486,375.3853)"><path
             d="m 0,0 c -0.64,0 -1.279,0.244 -1.768,0.732 l -10.904,10.905 c -0.976,0.976 -0.976,2.559 0,3.535 0.977,0.976 2.559,0.976 3.535,0 L 1.768,4.268 C 2.744,3.292 2.744,1.708 1.768,0.732 1.279,0.244 0.64,0 0,0"
             style="fill:#666666;fill-opacity:1;fill-rule:nonzero;stroke:none"
             id="path124"
             inkscape:connector-curvature="0" /></g><g
           id="g126"
           transform="translate(367.4443,375.3853)"><path
             d="m 0,0 c -0.64,0 -1.279,0.244 -1.768,0.732 -0.976,0.976 -0.976,2.56 0,3.536 L 9.137,15.172 c 0.976,0.976 2.558,0.976 3.535,0 0.976,-0.976 0.976,-2.559 0,-3.535 L 1.768,0.732 C 1.279,0.244 0.64,0 0,0"
             style="fill:#666666;fill-opacity:1;fill-rule:nonzero;stroke:none"
             id="path128"
             inkscape:connector-curvature="0" /></g><g
           id="g130"
           transform="translate(233.5254,426.7739)"><path
             d="m 0,0 c -0.64,0 -1.28,0.244 -1.768,0.732 l -10.903,10.905 c -0.977,0.976 -0.977,2.559 0,3.535 0.975,0.977 2.559,0.976 3.535,0 L 1.768,4.268 C 2.744,3.292 2.744,1.708 1.768,0.732 1.28,0.244 0.64,0 0,0"
             style="fill:#666666;fill-opacity:1;fill-rule:nonzero;stroke:none"
             id="path132"
             inkscape:connector-curvature="0" /></g><g
           id="g134"
           transform="translate(222.6216,426.7739)"><path
             d="m 0,0 c -0.64,0 -1.28,0.244 -1.768,0.732 -0.976,0.976 -0.976,2.56 0,3.536 L 9.136,15.172 c 0.976,0.976 2.56,0.976 3.535,0 0.977,-0.976 0.977,-2.559 0,-3.535 L 1.768,0.732 C 1.28,0.244 0.64,0 0,0"
             style="fill:#666666;fill-opacity:1;fill-rule:nonzero;stroke:none"
             id="path136"
             inkscape:connector-curvature="0" /></g><g
           id="g138"
           transform="translate(397.0361,126.2266)"><path
             d="m 0,0 c -0.64,0 -1.279,0.244 -1.768,0.732 l -10.904,10.905 c -0.976,0.976 -0.976,2.558 0,3.535 0.977,0.976 2.559,0.976 3.535,0 L 1.768,4.268 C 2.744,3.291 2.744,1.709 1.768,0.732 1.279,0.244 0.64,0 0,0"
             style="fill:#666666;fill-opacity:1;fill-rule:nonzero;stroke:none"
             id="path140"
             inkscape:connector-curvature="0" /></g><g
           id="g142"
           transform="translate(386.1318,126.2266)"><path
             d="m 0,0 c -0.64,0 -1.279,0.244 -1.768,0.732 -0.976,0.977 -0.976,2.559 0,3.536 L 9.137,15.172 c 0.976,0.976 2.558,0.976 3.535,0 0.976,-0.977 0.976,-2.559 0,-3.535 L 1.768,0.732 C 1.279,0.244 0.64,0 0,0"
             style="fill:#666666;fill-opacity:1;fill-rule:nonzero;stroke:none"
             id="path144"
             inkscape:connector-curvature="0" /></g><g
           id="g146"
           transform="translate(119.0684,150.3643)"><path
             d="m 0,0 c -0.64,0 -1.28,0.244 -1.768,0.732 l -10.903,10.905 c -0.977,0.976 -0.977,2.559 0,3.535 0.975,0.977 2.559,0.977 3.535,0 L 1.768,4.268 C 2.744,3.291 2.744,1.708 1.768,0.732 1.28,0.244 0.64,0 0,0"
             style="fill:#666666;fill-opacity:1;fill-rule:nonzero;stroke:none"
             id="path148"
             inkscape:connector-curvature="0" /></g><g
           id="g150"
           transform="translate(108.1646,150.3643)"><path
             d="m 0,0 c -0.64,0 -1.28,0.244 -1.768,0.732 -0.976,0.976 -0.976,2.559 0,3.536 L 9.136,15.172 c 0.976,0.976 2.56,0.976 3.535,0 0.977,-0.976 0.977,-2.559 0,-3.535 L 1.768,0.732 C 1.28,0.244 0.64,0 0,0"
             style="fill:#666666;fill-opacity:1;fill-rule:nonzero;stroke:none"
             id="path152"
             inkscape:connector-curvature="0" /></g><g
           id="g154"
           transform="translate(409.1875,276.9888)"><path
             d="m 0,0 h -3.44 c -1.381,0 -2.5,1.119 -2.5,2.5 0,1.381 1.119,2.5 2.5,2.5 H 0 C 1.381,5 2.5,3.881 2.5,2.5 2.5,1.119 1.381,0 0,0"
             style="fill:#666666;fill-opacity:1;fill-rule:nonzero;stroke:none"
             id="path156"
             inkscape:connector-curvature="0" /></g><g
           id="g158"
           transform="translate(422.5791,276.9888)"><path
             d="m 0,0 h -3.439 c -1.381,0 -2.5,1.119 -2.5,2.5 0,1.381 1.119,2.5 2.5,2.5 H 0 C 1.381,5 2.5,3.881 2.5,2.5 2.5,1.119 1.381,0 0,0"
             style="fill:#666666;fill-opacity:1;fill-rule:nonzero;stroke:none"
             id="path160"
             inkscape:connector-curvature="0" /></g><g
           id="g162"
           transform="translate(414.1631,281.9653)"><path
             d="m 0,0 c -1.381,0 -2.5,1.119 -2.5,2.5 v 3.439 c 0,1.381 1.119,2.5 2.5,2.5 1.381,0 2.5,-1.119 2.5,-2.5 V 2.5 C 2.5,1.119 1.381,0 0,0"
             style="fill:#666666;fill-opacity:1;fill-rule:nonzero;stroke:none"
             id="path164"
             inkscape:connector-curvature="0" /></g><g
           id="g166"
           transform="translate(414.1631,268.5728)"><path
             d="m 0,0 c -1.381,0 -2.5,1.119 -2.5,2.5 v 3.44 c 0,1.381 1.119,2.5 2.5,2.5 1.381,0 2.5,-1.119 2.5,-2.5 V 2.5 C 2.5,1.119 1.381,0 0,0"
             style="fill:#666666;fill-opacity:1;fill-rule:nonzero;stroke:none"
             id="path168"
             inkscape:connector-curvature="0" /></g><g
           id="g170"
           transform="translate(86.9878,276.9888)"><path
             d="m 0,0 h -3.44 c -1.381,0 -2.5,1.119 -2.5,2.5 0,1.381 1.119,2.5 2.5,2.5 H 0 C 1.381,5 2.5,3.881 2.5,2.5 2.5,1.119 1.381,0 0,0"
             style="fill:#666666;fill-opacity:1;fill-rule:nonzero;stroke:none"
             id="path172"
             inkscape:connector-curvature="0" /></g><g
           id="g174"
           transform="translate(100.3799,276.9888)"><path
             d="m 0,0 h -3.44 c -1.381,0 -2.5,1.119 -2.5,2.5 0,1.381 1.119,2.5 2.5,2.5 H 0 C 1.381,5 2.5,3.881 2.5,2.5 2.5,1.119 1.381,0 0,0"
             style="fill:#666666;fill-opacity:1;fill-rule:nonzero;stroke:none"
             id="path176"
             inkscape:connector-curvature="0" /></g><g
           id="g178"
           transform="translate(91.9639,281.9653)"><path
             d="m 0,0 c -1.381,0 -2.5,1.119 -2.5,2.5 v 3.439 c 0,1.381 1.119,2.5 2.5,2.5 1.381,0 2.5,-1.119 2.5,-2.5 V 2.5 C 2.5,1.119 1.381,0 0,0"
             style="fill:#666666;fill-opacity:1;fill-rule:nonzero;stroke:none"
             id="path180"
             inkscape:connector-curvature="0" /></g><g
           id="g182"
           transform="translate(91.9639,268.5728)"><path
             d="m 0,0 c -1.381,0 -2.5,1.119 -2.5,2.5 v 3.44 c 0,1.381 1.119,2.5 2.5,2.5 1.381,0 2.5,-1.119 2.5,-2.5 V 2.5 C 2.5,1.119 1.381,0 0,0"
             style="fill:#666666;fill-opacity:1;fill-rule:nonzero;stroke:none"
             id="path184"
             inkscape:connector-curvature="0" /></g><g
           id="g186"
           transform="translate(398.0645,239.832)"><path
             d="m 0,0 c -0.005,33.444 -27.118,60.555 -60.563,60.555 h -154.254 c -33.31,0 -60.564,-27.254 -60.564,-60.564 V -0.01 c 0,-33.309 27.254,-60.563 60.564,-60.563 l 0.108,0.019 c 0.252,-0.004 0.501,-0.019 0.753,-0.019 16.15,0 57.66,23.903 78.06,23.777 19.748,-0.122 56.078,-23.777 75.333,-23.777 33.445,0 60.558,27.11 60.563,60.554 l 0,0.009 v 0.001 z"
             style="fill:#decdc0;fill-opacity:1;fill-rule:nonzero;stroke:none"
             id="path188"
             inkscape:connector-curvature="0" /></g><g
           id="g190"
           transform="translate(256.6245,213.1289)"><path
             d="m 0,0 h 0.181 c 10.574,-0.065 25.156,-6.259 39.258,-12.249 13.342,-5.666 27.138,-11.526 36.055,-11.526 31.534,0 57.193,25.655 57.198,57.189 l 3.365,0.019 h -3.365 C 132.687,64.967 107.028,90.622 75.494,90.622 H -78.761 c -31.539,0 -57.199,-25.659 -57.199,-57.198 0,-31.448 25.507,-57.05 56.92,-57.198 l 0.423,0.017 0.718,-0.018 c 6.926,0 20.388,5.38 33.408,10.585 C -28.265,-6.705 -11.488,0 0,0 m 75.494,-30.505 c -10.288,0 -24.081,5.859 -38.687,12.063 -13.49,5.73 -27.441,11.657 -36.668,11.713 -10.181,0.089 -27.153,-6.724 -42.133,-12.71 -14.236,-5.691 -27.684,-11.066 -35.905,-11.066 -0.177,0 -0.352,0.005 -0.527,0.012 l -0.058,10e-4 -0.277,-0.013 c -35.25,0 -63.928,28.679 -63.928,63.929 0,35.25 28.678,63.928 63.928,63.928 H 75.494 c 35.244,0 63.923,-28.674 63.927,-63.919 V 33.424 C 139.417,-1.832 110.738,-30.505 75.494,-30.505"
             style="fill:#231f20;fill-opacity:1;fill-rule:nonzero;stroke:none"
             id="path192"
             inkscape:connector-curvature="0" /></g><g
           id="g194"
           transform="translate(210.8608,259.436)"><path
             d="M 0,0 H -19.925 V 19.925 H -47.039 V 0 h -19.924 v -27.114 h 19.924 v -19.925 h 27.114 v 19.925 H 0 Z"
             style="fill:#ffffff;fill-opacity:1;fill-rule:nonzero;stroke:none"
             id="path196"
             inkscape:connector-curvature="0" /></g><g
           id="g198"
           transform="translate(216.2441,254.0527)"><path
             d="M 0,0 H -19.924 V 19.924 H -47.039 V 0 h -19.924 v -27.114 h 19.924 v -19.925 h 27.115 v 19.925 H 0 Z"
             style="fill:#1c9d79;fill-opacity:1;fill-rule:nonzero;stroke:none"
             id="path200"
             inkscape:connector-curvature="0" /></g><g
           id="g202"
           transform="translate(165.8413,217.1074)"><path
             d="m 0,0 h 20.384 v 16.561 c 0,1.858 1.507,3.365 3.365,3.365 h 16.56 v 20.383 h -16.56 c -1.858,0 -3.365,1.506 -3.365,3.365 v 16.56 H 0 v -16.56 c 0,-1.859 -1.506,-3.365 -3.365,-3.365 h -16.56 V 19.926 h 16.56 C -1.506,19.926 0,18.419 0,16.561 Z M 23.749,-6.729 H -3.365 c -1.858,0 -3.364,1.506 -3.364,3.365 v 16.56 H -23.29 c -1.858,0 -3.364,1.506 -3.364,3.365 v 27.113 c 0,1.858 1.506,3.365 3.364,3.365 h 16.561 v 16.56 c 0,1.859 1.506,3.364 3.364,3.364 h 27.114 c 1.858,0 3.365,-1.505 3.365,-3.364 v -16.56 h 16.559 c 1.859,0 3.365,-1.507 3.365,-3.365 V 16.561 c 0,-1.859 -1.506,-3.365 -3.365,-3.365 H 27.114 v -16.56 c 0,-1.859 -1.507,-3.365 -3.365,-3.365"
             style="fill:#231f20;fill-opacity:1;fill-rule:nonzero;stroke:none"
             id="path204"
             inkscape:connector-curvature="0" /></g><g
           id="g206"
           transform="translate(346.8252,271.1265)"><path
             d="m 0,0 c 0,-6.773 -5.49,-12.263 -12.264,-12.263 -6.772,0 -12.263,5.49 -12.263,12.263 0,6.773 5.491,12.264 12.263,12.264 C -5.49,12.264 0,6.773 0,0"
             style="fill:#ffffff;fill-opacity:1;fill-rule:nonzero;stroke:none"
             id="path208"
             inkscape:connector-curvature="0" /></g><g
           id="g210"
           transform="translate(346.8252,220.123)"><path
             d="m 0,0 c 0,-6.772 -5.49,-12.263 -12.264,-12.263 -6.772,0 -12.263,5.491 -12.263,12.263 0,6.773 5.491,12.264 12.263,12.264 C -5.49,12.264 0,6.773 0,0"
             style="fill:#ffffff;fill-opacity:1;fill-rule:nonzero;stroke:none"
             id="path212"
             inkscape:connector-curvature="0" /></g><g
           id="g214"
           transform="translate(360.0635,233.3613)"><path
             d="m 0,0 c -6.773,0 -12.264,5.491 -12.264,12.264 0,6.773 5.491,12.263 12.264,12.263 6.772,0 12.264,-5.49 12.264,-12.263 C 12.264,5.491 6.772,0 0,0"
             style="fill:#ffffff;fill-opacity:1;fill-rule:nonzero;stroke:none"
             id="path216"
             inkscape:connector-curvature="0" /></g><g
           id="g218"
           transform="translate(309.0605,233.3613)"><path
             d="m 0,0 c -6.773,0 -12.264,5.491 -12.264,12.264 0,6.773 5.491,12.263 12.264,12.263 6.772,0 12.263,-5.49 12.263,-12.263 C 12.263,5.491 6.772,0 0,0"
             style="fill:#ffffff;fill-opacity:1;fill-rule:nonzero;stroke:none"
             id="path220"
             inkscape:connector-curvature="0" /></g><g
           id="g222"
           transform="translate(352.209,268.4351)"><path
             d="m 0,0 c 0,-6.773 -5.491,-12.264 -12.264,-12.264 -6.773,0 -12.263,5.491 -12.263,12.264 0,6.773 5.49,12.264 12.263,12.264 C -5.491,12.264 0,6.773 0,0"
             style="fill:#585da2;fill-opacity:1;fill-rule:nonzero;stroke:none"
             id="path224"
             inkscape:connector-curvature="0" /></g><g
           id="g226"
           transform="translate(352.209,217.4316)"><path
             d="m 0,0 c 0,-6.772 -5.491,-12.264 -12.264,-12.264 -6.773,0 -12.263,5.492 -12.263,12.264 0,6.773 5.49,12.264 12.263,12.264 C -5.491,12.264 0,6.773 0,0"
             style="fill:#9c1c33;fill-opacity:1;fill-rule:nonzero;stroke:none"
             id="path228"
             inkscape:connector-curvature="0" /></g><g
           id="g230"
           transform="translate(365.4473,230.6699)"><path
             d="m 0,0 c -6.773,0 -12.264,5.49 -12.264,12.264 0,6.772 5.491,12.263 12.264,12.263 6.772,0 12.263,-5.491 12.263,-12.263 C 12.263,5.49 6.772,0 0,0"
             style="fill:#f0be55;fill-opacity:1;fill-rule:nonzero;stroke:none"
             id="path232"
             inkscape:connector-curvature="0" /></g><g
           id="g234"
           transform="translate(314.4434,230.6699)"><path
             d="m 0,0 c -6.772,0 -12.264,5.49 -12.264,12.264 0,6.772 5.492,12.263 12.264,12.263 6.773,0 12.264,-5.491 12.264,-12.263 C 12.264,5.49 6.773,0 0,0"
             style="fill:#1c9d79;fill-opacity:1;fill-rule:nonzero;stroke:none"
             id="path236"
             inkscape:connector-curvature="0" /></g><g
           id="g238"
           transform="translate(334.5625,281.3716)"><path
             d="m 0,0 c -4.908,0 -8.899,-3.992 -8.899,-8.899 0,-4.907 3.991,-8.898 8.899,-8.898 4.906,0 8.897,3.991 8.897,8.898 C 8.897,-3.992 4.906,0 0,0 m 0,-24.527 c -8.618,0 -15.629,7.011 -15.629,15.628 0,8.618 7.011,15.628 15.629,15.628 8.616,0 15.627,-7.01 15.627,-15.628 0,-8.617 -7.011,-15.628 -15.627,-15.628"
             style="fill:#231f20;fill-opacity:1;fill-rule:nonzero;stroke:none"
             id="path240"
             inkscape:connector-curvature="0" /></g><g
           id="g242"
           transform="translate(334.5625,230.3682)"><path
             d="m 0,0 c -4.908,0 -8.899,-3.992 -8.899,-8.898 0,-4.908 3.991,-8.9 8.899,-8.9 4.906,0 8.897,3.992 8.897,8.9 C 8.897,-3.992 4.906,0 0,0 m 0,-24.526 c -8.618,0 -15.629,7.009 -15.629,15.628 0,8.617 7.011,15.627 15.629,15.627 8.616,0 15.627,-7.01 15.627,-15.627 0,-8.619 -7.011,-15.628 -15.627,-15.628"
             style="fill:#231f20;fill-opacity:1;fill-rule:nonzero;stroke:none"
             id="path244"
             inkscape:connector-curvature="0" /></g><g
           id="g246"
           transform="translate(360.0645,255.8696)"><path
             d="m 0,0 c -4.908,0 -8.899,-3.992 -8.899,-8.899 0,-4.906 3.991,-8.898 8.899,-8.898 4.906,0 8.897,3.992 8.897,8.898 C 8.897,-3.992 4.906,0 0,0 m 0,-24.527 c -8.618,0 -15.629,7.011 -15.629,15.628 0,8.618 7.011,15.628 15.629,15.628 8.616,0 15.627,-7.01 15.627,-15.628 0,-8.617 -7.011,-15.628 -15.627,-15.628"
             style="fill:#231f20;fill-opacity:1;fill-rule:nonzero;stroke:none"
             id="path248"
             inkscape:connector-curvature="0" /></g><g
           id="g250"
           transform="translate(309.0605,255.8696)"><path
             d="m 0,0 c -4.907,0 -8.899,-3.992 -8.899,-8.899 0,-4.906 3.992,-8.898 8.899,-8.898 4.906,0 8.897,3.992 8.897,8.898 C 8.897,-3.992 4.906,0 0,0 m 0,-24.527 c -8.618,0 -15.629,7.011 -15.629,15.628 0,8.618 7.011,15.628 15.629,15.628 8.616,0 15.627,-7.01 15.627,-15.628 0,-8.617 -7.011,-15.628 -15.627,-15.628"
             style="fill:#231f20;fill-opacity:1;fill-rule:nonzero;stroke:none"
             id="path252"
             inkscape:connector-curvature="0" /></g><g
           id="g254"
           transform="translate(269.1885,279.3608)"><path
             d="m 0,0 h -28.395 c -2.555,0 -4.645,2.09 -4.645,4.645 v 3.212 c 0,2.555 2.09,4.645 4.645,4.645 H 0 c 2.555,0 4.645,-2.09 4.645,-4.645 V 4.645 C 4.645,2.09 2.555,0 0,0"
             style="fill:#ffffff;fill-opacity:1;fill-rule:nonzero;stroke:none"
             id="path256"
             inkscape:connector-curvature="0" /></g><g
           id="g258"
           transform="translate(273.2256,275.3232)"><path
             d="m 0,0 h -28.395 c -2.554,0 -4.644,2.09 -4.644,4.645 v 3.212 c 0,2.555 2.09,4.645 4.644,4.645 H 0 c 2.555,0 4.645,-2.09 4.645,-4.645 V 4.645 C 4.645,2.09 2.555,0 0,0"
             style="fill:#807f7f;fill-opacity:1;fill-rule:nonzero;stroke:none"
             id="path260"
             inkscape:connector-curvature="0" /></g><g
           id="g262"
           transform="translate(242.3994,289.8442)"><path
             d="m 0,0 c -1.591,0 -2.886,-1.295 -2.886,-2.887 0,-1.592 1.295,-2.886 2.886,-2.886 h 25.183 c 1.591,0 2.885,1.294 2.885,2.886 C 28.068,-1.295 26.774,0 25.183,0 Z M 25.183,-12.502 H 0 c -5.302,0 -9.615,4.313 -9.615,9.615 0,5.303 4.313,9.616 9.615,9.616 h 25.183 c 5.301,0 9.615,-4.313 9.615,-9.616 0,-5.302 -4.314,-9.615 -9.615,-9.615"
             style="fill:#231f20;fill-opacity:1;fill-rule:nonzero;stroke:none"
             id="path264"
             inkscape:connector-curvature="0" /></g><g
           id="g266"
           transform="translate(303.4414,401.5508)"><path
             d="m 0,0 c -1.858,0 -3.364,-1.506 -3.364,-3.365 v -65.619 c 0,-4.824 -3.925,-8.748 -8.748,-8.748 -4.824,0 -8.748,3.924 -8.748,8.748 v 5.952 21.982 8.973 c 0,8.535 -6.944,15.478 -15.478,15.478 -8.534,0 -15.477,-6.943 -15.477,-15.478 v -60.236 c 0,-1.858 1.506,-3.364 3.364,-3.364 1.859,0 3.365,1.506 3.365,3.364 v 60.236 c 0,4.824 3.925,8.748 8.748,8.748 4.823,0 8.748,-3.924 8.748,-8.748 v -8.973 -21.982 -5.952 c 0,-8.535 6.944,-15.477 15.478,-15.477 8.534,0 15.477,6.942 15.477,15.477 V -3.365 C 3.365,-1.506 1.858,0 0,0"
             style="fill:#231f20;fill-opacity:1;fill-rule:nonzero;stroke:none"
             id="path268"
             inkscape:connector-curvature="0" /></g></g></g></g></svg>