<?xml version="1.0" encoding="UTF-8" standalone="no"?>
<svg
   xmlns:dc="http://purl.org/dc/elements/1.1/"
   xmlns:cc="http://creativecommons.org/ns#"
   xmlns:rdf="http://www.w3.org/1999/02/22-rdf-syntax-ns#"
   xmlns:svg="http://www.w3.org/2000/svg"
   xmlns="http://www.w3.org/2000/svg"
   xmlns:sodipodi="http://sodipodi.sourceforge.net/DTD/sodipodi-0.dtd"
   xmlns:inkscape="http://www.inkscape.org/namespaces/inkscape"
   width="200.79mm"
   height="200.79mm"
   version="1.1"
   viewBox="0 0 711.47785 711.47785"
   id="svg36"
   sodipodi:docname="calendar.svg"
   inkscape:version="0.92.2 (5c3e80d, 2017-08-06)">
  <metadata
     id="metadata42">
    <rdf:RDF>
      <cc:Work
         rdf:about="">
        <dc:format>image/svg+xml</dc:format>
        <dc:type
           rdf:resource="http://purl.org/dc/dcmitype/StillImage" />
      </cc:Work>
    </rdf:RDF>
  </metadata>
  <defs
     id="defs40" />
  <sodipodi:namedview
     pagecolor="#ffffff"
     bordercolor="#666666"
     borderopacity="1"
     objecttolerance="10"
     gridtolerance="10"
     guidetolerance="10"
     inkscape:pageopacity="0"
     inkscape:pageshadow="2"
     inkscape:window-width="3200"
     inkscape:window-height="1644"
     id="namedview38"
     showgrid="false"
     inkscape:zoom="0.31097997"
     inkscape:cx="379.44566"
     inkscape:cy="379.44566"
     inkscape:window-x="-16"
     inkscape:window-y="-16"
     inkscape:window-maximized="1"
     inkscape:current-layer="g34" />
  <g
     transform="translate(-15.143263,403.41235)"
     id="g34">
    <rect
       x="216.61"
       y="-199.37578"
       width="308.04001"
       height="355.42999"
       ry="15.903"
       id="rect6"
       style="fill:#cfd8dc" />
    <rect
       x="219.23"
       y="-154.36577"
       width="307.76001"
       height="307.76001"
       ry="12.974"
       id="rect8"
       style="fill:#f2f2f2" />
    <rect
       x="219.23"
       y="-201.71577"
       width="307.76001"
       height="72.206001"
       id="rect10"
       style="fill:#03a9f4" />
    <path
       d="m 526.99,-129.51577 4.1697,-5.0205 -4.9544,-0.89091 z"
       id="path12"
       inkscape:connector-curvature="0"
       style="fill:#03a9f4;fill-rule:evenodd" />
    <path
       d="m 430.758,-80.593404 c -6.105,0 -13.227,1.357 -21.367,4.0703 -8.14,2.7133 -15.262,7.4628 -21.367,14.246 -5.4266,6.105 -9.4957,14.245 -12.209,24.42 -2.7133,9.4966 -3.0526,20.349 -1.0176,32.5590005 2.7133,12.21 9.4963,22.0459995 20.35,29.5079995 11.532,6.7833 25.776,8.8188 42.734,6.1055 -9.4966,20.35 -21.706,43.074 -36.629,68.172 h 22.385 c 26.455,-44.77 43.074,-74.277 49.857,-88.5209995 6.783,-14.244 10.174,-25.7770005 10.174,-34.5960005 0,-9.4966 -1.0178,-16.958 -3.0527,-22.385 -2.035,-6.105 -5.7648,-11.87 -11.191,-17.297 -5.4266,-5.4266 -11.531,-9.4976 -18.314,-12.211 -6.7833,-2.7133 -13.568,-4.0703 -20.352,-4.0703 z m -127.19,1.0176 c -10.853,15.602 -24.76,29.17 -41.719,40.701 v 19.332 c 13.567,-8.14 24.76,-16.619 33.578,-25.438 v 140.41 h 20.35 v -175.01 h -12.209 z m 123.88,19.143 c 1.1871,-0.0424 2.2891,0.0218 3.3066,0.19141 6.7833,0 12.89,2.3728 18.316,7.1211 6.105,4.7483 9.8348,10.855 11.191,18.316 1.3567,6.7833 0.67817,15.261 -2.0352,25.4360005 -4.07,8.14 -8.4782,13.907 -13.227,17.299 -4.07,3.3915995 -9.8352,5.4270995 -17.297,6.1054995 -7.4616,0.67833 -14.586,-1.6964 -21.369,-7.1229995 -6.105,-6.10500002 -9.8347,-13.566 -11.191,-22.3850005 -0.67833,-8.8183 0.67866,-17.298 4.0703,-25.438 4.07,-8.14 9.1568,-13.568 15.262,-16.281 5.0875,-2.035 9.4114,-3.115 12.973,-3.2422 z"
       id="path14"
       inkscape:connector-curvature="0"
       style="fill:#26a69a" />
    <path
       d="m 223.41,-206.74577 -4.1327,5.0482 4.9174,0.86318 z"
       id="path16"
       inkscape:connector-curvature="0"
       style="fill:#03a9f4;fill-rule:evenodd" />
    <rect
       x="223.42"
       y="-206.74577"
       width="307.76001"
       height="72.206001"
       id="rect18"
       style="fill:#29b6f6" />
    <g
       transform="matrix(1.1718,0,0,1.1718,-177.31,-330.48977)"
       id="g24"
       style="fill:#0277bd">
      <rect
         x="381.5"
         y="89.862"
         width="29.989"
         height="51.070999"
         ry="4.1631999"
         id="rect20" />
      <rect
         x="530.08002"
         y="89.862"
         width="29.989"
         height="51.070999"
         ry="4.1631999"
         id="rect22" />
    </g>
    <rect
       x="271.82999"
       y="-227.27577"
       width="35.141998"
       height="59.846001"
       ry="4.8783998"
       id="rect26"
       style="fill:#0288d1" />
    <rect
       x="445.92999"
       y="-227.27577"
       width="35.141998"
       height="59.846001"
       ry="4.8783998"
       id="rect28"
       style="fill:#0288d1" />
    <path
       d="m 527.07,84.644226 -34.758,68.748004 h 20.841 c 7.71,0 13.917,-6.207 13.917,-13.917 z"
       id="path30"
       inkscape:connector-curvature="0"
       style="fill:#cfd8dc;fill-rule:evenodd" />
    <path
       d="m 527.09,84.654226 -34.803,68.725004 -12.345,-16.792 c -4.5667,-6.2121 -3.2421,-14.89 2.97,-19.456 z"
       id="path32"
       inkscape:connector-curvature="0"
       style="fill:#b0bec5;fill-rule:evenodd" />
  </g>
</svg>
